<?xml version="1.0" encoding="UTF-8"?>
<!DOCTYPE svg PUBLIC "-//W3C//DTD SVG 1.0//EN" "http://www.w3.org/TR/2001/REC-SVG-20010904/DTD/svg10.dtd">
<!-- Creator: CorelDRAW 2017 -->
<svg xmlns="http://www.w3.org/2000/svg" xml:space="preserve" width="1334mm" height="483.312mm" version="1.0" style="shape-rendering:geometricPrecision; text-rendering:geometricPrecision; image-rendering:optimizeQuality; fill-rule:evenodd; clip-rule:evenodd"
viewBox="0 0 133400 48331.17"
 xmlns:xlink="http://www.w3.org/1999/xlink">
 <defs>
  <style type="text/css">
   <![CDATA[
    .str1 {stroke:black;stroke-width:50;stroke-miterlimit:22.9256}
    .str0 {stroke:black;stroke-width:30;stroke-miterlimit:22.9256}
    .fil28 {fill:none}
    .fil29 {fill:#0B0202}
    .fil17 {fill:#0B020B}
    .fil2 {fill:#130302}
    .fil21 {fill:#170706}
    .fil19 {fill:#181506}
    .fil20 {fill:#270805}
    .fil24 {fill:#271606}
    .fil12 {fill:#671619}
    .fil33 {fill:#681824}
    .fil34 {fill:#751626}
    .fil6 {fill:#8F1228}
    .fil8 {fill:#9A1A28}
    .fil9 {fill:#A91B29}
    .fil10 {fill:#B36B12}
    .fil5 {fill:#B50505}
    .fil23 {fill:#C72736}
    .fil30 {fill:#C73539}
    .fil26 {fill:#CE6F73}
    .fil7 {fill:#D28D11}
    .fil31 {fill:#D7AB1F}
    .fil0 {fill:#E8483A}
    .fil25 {fill:#ED9090}
    .fil4 {fill:#EFAF0F}
    .fil32 {fill:#F0B330}
    .fil27 {fill:#F1D3CF}
    .fil14 {fill:#F4CD32}
    .fil13 {fill:#F5AB96}
    .fil11 {fill:#F6F6F8}
    .fil16 {fill:#F8C80D}
    .fil3 {fill:#F8EBD2}
    .fil18 {fill:#F9EAE7}
    .fil22 {fill:#F9F6E9}
    .fil15 {fill:#FAECB0}
    .fil1 {fill:#FDFAF5}
   ]]>
  </style>
 </defs>
 <g id="图层_x0020_1">
  <metadata id="CorelCorpID_0Corel-Layer"/>
  <g id="_1295181139872">
   <path class="fil0" d="M115934.6 43039.86l-745.68 -393.8c2073.5,-1293.62 3820.21,-1826.4 4624.07,1149.68 -1437.02,-757.26 -1743.13,-1548.16 -2703.07,-1488.59 -2511.42,155.81 -854.33,303.34 -1175.32,732.71zm5157.95 -2781.39l3851.09 -8626.28c764.15,-1235.43 191.93,-498.31 1092.04,-999.1 -705.97,2623.37 -3120.03,8627.65 -4943.13,9625.38zm11.31 -5164.57c181.45,-1100.04 630.12,-1723.55 1140.02,-2709.14 1063.91,-2056.39 755.05,-2112.38 2019.17,-3056.05 -996.35,4389.39 -2141.61,4261.16 -3159.19,5765.19zm-115313.2 -16378.1c-1004.9,-355.19 -1339.4,-733.81 -1394.28,-2174.7 -59.84,-1575.46 602.55,-2455.16 1327.54,-3103.21 -802.2,3071.5 -1073.83,2337.13 66.74,5277.91zm118771.87 -7092.73l-4683.36 -2736.44c9.1,-5.24 -153.87,-1178.08 2589.73,384.97 1295.56,738.23 1687.98,784.56 2093.63,2351.47zm-34225.75 -8496.67c214.55,-201.86 27.3,-620.48 1878.8,-672.32 787.04,-22.06 1911.9,150.84 2696.73,292.04 670.39,121.06 1202.9,258.94 1876.32,417.78 2608.76,615.24 1287.84,255.09 1955.19,1431.79l-8407.04 -1469.29zm-60707.96 717.82l-7563.47 1668.12c290.1,-291.21 -162.71,-217.03 992.48,-715.34l4176.77 -1166.77c1751.4,-430.75 4078.6,-944.51 5800.77,-632.61 2026.61,-242.68 6200.63,-860.95 8042.2,-254.26l-12056.27 1853.98 607.52 -753.12zm50147.73 -2249.71c1420.2,-648.05 6580.36,-522.03 8064.81,383.04 -1086.52,641.44 -6685.98,226.68 -8064.81,-383.04zm-53883.55 1451.09c-2784.98,2357.53 -13586.78,3718.72 -15929.98,5823.65l-1158.5 389.66 1529.41 712.03c-2287.49,1010.14 -1999.87,902.04 -3155.33,2296.32 -853.5,1030.54 12.41,388 -1247.85,937.61 349.12,-1776.5 744.57,-2383.18 2098.87,-2882.6l-438.2 -285.14c-2331.61,922.44 -3150.92,3625.79 -3745.2,5845.99 -56.53,-93.76 -162.42,-330.37 -177.31,-276.87 -4.42,15.72 -707.62,-642.54 339.47,-3037.03 744.84,-1703.41 1031.64,-1302.44 2088.11,-2453.22 -384.15,-534.16 489.21,-523.13 -615.24,-301.97l-2499.28 3222.9c-1127.89,2186.55 -743.47,2718.23 -1312.1,4624.34 -261.98,-2714.38 97.07,-3458.4 562.84,-5688.25 859.29,-744.85 129.06,-84.11 -34.19,-370.91 -890.73,1106.93 -1710.59,2936.09 -1664.26,4722.79 320.44,1608.55 -62.05,2517.48 452.53,4138.44 506.86,1597.24 1037.72,2478.6 1631.17,3950.37l735.74 -1751.68c186.97,-1137.81 671.5,-1246.19 1468.47,-1957.39l2098.31 -15.17 367.05 454.19c1098.65,-27.03 723.88,143.95 438.74,-1041.02l-127.4 -1005.45c-1549.26,-1668.67 -547.13,-4914.45 1264.39,-6306.52 1208.69,-929.06 3617.79,-2225.45 5336.65,-3060.19 3632.41,-1764.09 8489.22,-3568.71 12750.38,-4015.45 -1402.28,1052.33 -3748.78,1338.57 -6150.99,2165.87 -2016.96,694.39 -4259.23,1608.55 -5710.04,2411.86 5574.91,-1284.8 11338.72,-3233.64 17596.99,-3356.64 2706.93,-91.55 7786.84,-2043.43 10114.59,-1588.42 701.56,-764.15 -379.45,-158.56 1234.06,-1017.3 -4769.39,-39.99 -9119.35,1277.08 -13335.28,1668.12 8408.97,-1617.1 9703.7,-3005.32 20564.52,-3000.08 7844.2,3.86 14178.03,-1241.23 22596.1,-394.9 23873.46,2399.46 14249.45,132.1 35685.67,5842.69 2172.21,578.83 3364.08,1341.6 4617.72,852.39l-6276.47 -1956.84c-830.33,-309.69 -645.84,-305.83 -903.13,-456.67 2857.77,202.14 21794.99,4442.33 19462.83,12072.82 -429.1,1404.75 -528.92,972.35 -1230.2,1397.31l-931.27 2827.72c-1081.28,3465.01 -2387.31,6829.93 -3828.2,10054.75 -681.97,1526.1 -1515.06,3294.59 -2232.61,4664.6 -840.54,1605.25 -2041.78,2540.65 -3302.31,3906.25 -1336.37,455.57 -1179.46,1420.2 -2958.44,1523.06 -414.47,414.76 736.03,495.28 -1313.48,541.89 -852.39,19.3 -824.27,-134.3 -1593.66,-360.98 1194.08,1171.18 1653.23,981.18 3375.4,1084.31 -1122.1,779.32 -1887.63,355.74 -3332.65,-103.41 1242.05,1454.4 1743.67,991.94 3918.1,2567.12 4792.29,3471.08 7878.4,-1160.71 5133.69,-2325l-764.71 226.41c745.68,1276.25 472.39,1192.97 -252.6,2204.76 -2336.03,198.83 -3426.41,-1800.21 -1848.74,-3382.29 69.49,-69.49 311.89,-303.89 370.63,-368.97l278.8 -375.6c1674.18,212.62 2679.35,744.57 3524.86,1272.94 34.47,-122.71 94.86,-365.11 127.4,-429.37 20.96,-41.09 72.8,-171.8 101.21,-223.09 31.16,-55.71 94.31,-168.22 132.64,-230.54 1216.41,-1989.94 2770.64,-2946.85 3870.12,-4991.67 1002.14,-1863.63 357.67,-1747.81 1652.95,-2540.37 597.04,-1722.72 1941.68,-5264.95 2709.96,-6864.12 -2827.16,-71.98 -4043.85,-2180.49 -3358.84,-5225.79 577.18,-2564.09 4129.34,-4456.13 4665.15,-1912.45 707.9,-224.75 503.56,-326.23 503.56,446.74l171.25 648.33c1529.68,-1525.82 -698.8,-2543.4 -1653.78,-2962.84 1944.71,-513.21 2641.85,1231.3 3228.68,2734.51 447.57,-2472.53 749.54,-3102.39 720.86,-5842.96 -32.54,-3079.77 -668.18,-3142.65 -1515.89,-5540.17 -779.6,-818.48 -1192.97,-1321.2 -2622.55,-1633.92 -1728.23,-451.43 -539.68,-272.18 -757.81,372.29 1534.09,763.87 2435.58,2786.9 2711.62,5227.17l-224.2 815.16 -487.83 -827.3c-718.65,-3606.48 -2561.05,-5595.04 -5865.3,-6412.41 -1141.12,-763.6 -9846.27,-3893.29 -11423.38,-3699.7 -940.64,115.27 -146.71,812.69 -2513.35,228.61l-9415.8 -2136.37c612.48,-646.12 -19.57,-218.41 857.64,-673.97 573.05,-297.56 303.62,22.89 1082.39,-449.5l-17950.8 -1866.4c-11254.07,-477.35 -29104.49,-480.38 -40208.52,368.43 -6212.21,474.87 -12031.18,1572.97 -18103.85,2354.5z"/>
   <path class="fil1" d="M37116.72 25826.75c2050.88,83.28 3348.92,1357.6 3024.06,3714.31 -2068.25,548.5 -3365.19,-2357.54 -3024.06,-3714.31zm14024.42 -1768.77l10086.19 -1049.02c674.8,-22.61 68.67,-87.7 756.16,-8.55 1212.54,139.81 612.2,185.87 902.03,327.06 1547.61,4377.25 -639.78,3659.71 -3212.97,3851.37l-7650.33 797.52c-800.56,-1109.97 -759.74,-2445.23 -881.08,-3918.38zm-16615.26 -505.21c1271.84,540.78 4011.31,6777.26 1607.17,7744.93 -1196.27,481.49 -1903.89,289.55 -2862.74,-179.53 490.32,-1362.84 304.18,-645.29 1569.12,-1563.87 -225.58,-2265.71 -1346.02,-4351.34 -313.55,-6001.53zm62706.18 1405.31c982.56,1809.31 4058.74,4056.26 1517.27,5532.45 -1287.01,-638.41 -1132.3,-908.66 -2324.72,-3632.41 -823.99,414.48 -2209.72,1904.45 -3811.66,1799.66 -1429.3,-93.76 -932.64,-245.44 -1379.94,-1018.69 1283.98,-1418.55 3888.87,-394.9 5749.75,-7537.82 422.48,-1621.24 314.93,-2399.45 1680.25,-2687.91 652.19,2528.51 -689.42,5418.83 -1430.95,7544.72zm2649.57 420c1933.68,-915 4011.86,-2892.53 4862.05,-4633.17 -1550.09,-776.01 -3268.39,-212.34 -2650.95,-1917.41 788.7,-1084.04 2759.88,-205.17 4664.05,-65.36 17.38,-65.91 355.19,-1514.51 364.29,-1532.99 682.8,-1362.29 -400.14,-588.49 1203.45,-664.05l232.2 2648.47c1914.37,941.75 2037.37,157.47 1666.46,2297.42 -2596.35,1465.98 -1897,-2009.52 -3311.97,3958.92 -569.73,2404.14 -775.18,4483.97 -2125.06,5843.78 -2030.47,342.78 -3428.06,22.34 -3371.53,-2142.43 1362.57,-559.54 929.89,-14.07 2489.35,-174.84l1045.16 -4800.56c-1476.18,1134.23 -2801.8,3552.16 -5820.62,2693.14 155.53,-1767.39 -602.28,-342.77 753.12,-1510.92zm-63946.02 -10767.34c1333.61,313 555.12,-110.86 1532.16,1367.25 1741.75,-277.14 1438.68,-619.37 2859.71,2.49 465.49,1924.85 -567.81,1234.88 -2359.47,2033.78l340.3 1871.63c1607.45,-157.74 1906.1,-607.79 3711.55,-223.09 342.23,2245.3 -713.96,1680.25 -2970.57,2254.4 1593.94,1256.39 3966.92,1348.77 4470.74,1576.56 1305.76,590.14 500.8,-25.1 926.58,1303.83l-2855.29 199.1c466.6,726.37 845.22,915.27 1225.78,1538.23 1090.94,1785.04 -83,1799.11 -92.1,1807.38 -874.46,782.07 -1419.1,-504.1 -3674.88,-2831.58l544.37 -1061.7 -2892.8 -1869.71c-5587.05,605.59 -2692.04,1220.55 -5023.93,3428.07l489.76 360.7c2030.48,1671.43 -23.99,4807.45 -938.44,5006 -1394.28,302.52 -853.22,-284.31 -967.11,-374.49 -1219.72,-1276.25 283.49,-828.4 1102.24,-4116.65 -1206.76,806.62 -2006.76,2186.28 -3752.92,1472.87 169.88,-2472.25 1122.38,-650.81 3552.16,-4437.65 -1790,70.32 -2408.83,891.01 -4192.76,50.19 44.95,-1960.43 974.56,-860.67 3807.79,-2460.39l-227.78 -1619.03c-1737.06,138.98 -1549.82,511.55 -3291.56,-26.2 89.9,-1632.82 913.89,-1413.58 2528.23,-1903.9l352.43 -1879.08c827.58,-249.29 205.45,-520.09 1055.09,170.15l919.41 1139.75 3321.06 -895.7 500.25 -1883.21zm63946.02 10767.34l-1508.72 -33.92c-471.29,-1923.76 1411.65,-5971.47 1711.96,-8223.39l-3211.04 -933.74c-228.88,1839.64 -493.62,3028.75 -964.08,4811.31 -645.57,2446.33 -16.54,3529.27 -2492.66,3172.7 -351.88,-2071.84 1249.5,-6631.38 2028.82,-9033.31 36.95,-113.89 176.49,-484.25 207.93,-563.67 23.99,-60.67 125.2,-114.44 143.67,-254.25 18.76,-141.2 108.66,-163.81 160.5,-247.37 99.83,0 5291.42,821.79 6230.96,1693.49 -75.83,1875.49 -1703.41,7621.93 -2307.34,9612.15zm-44795.36 -12815.19c418.06,-1116.3 8.82,-756.7 652.74,-1714.17 1045.71,260.6 423.85,-128.51 1037.44,531.68 447.02,480.39 -411.17,-561.74 286.24,508.52l321.55 529.75c1117.96,-31.17 2162.29,-123.27 3268.67,-247.37 4342.51,-487 2428.4,-47.71 2742.5,289.83 1436.75,1792.77 -4291.21,1218.62 -5864.46,1772.64 790.62,589.03 364.28,354.63 2529.33,200.75 1339.13,-95.14 1352.64,-131.81 2640.75,187.53 -119.41,1740.09 492.8,750.36 -857.08,1378.56 795.03,1331.13 837.78,2171.39 544.91,4003.31l-2046.19 774.63c1273.49,-28.13 5656.54,-1204.27 4528.93,921.62 -95.42,179.8 -485.63,422.47 -657.16,487.28 -164.63,62.32 -13334.73,1699.55 -15223.46,900.65 332.85,-1532.44 478.18,-1264.94 2524.93,-1467.91 -808.28,-1544.29 -976.49,-2070.18 -698.52,-3939.33 2874.6,-961.05 6932.79,-360.98 9376.37,-1538.23 -2704.46,41.91 -8451.45,1146.64 -10361.69,363.18 733.82,-1746.43 2412.14,-906.17 4758.92,-1668.39l511.27 -313.82c-2016.41,75.28 -5075.22,899.55 -6509.49,-289.83 515.41,-821.79 -337.81,-674.26 3023.52,-1246.47 1193.79,-203.24 2233.99,-221.17 3469.98,-424.41zm-36755.09 6265.16c-692.45,-107.27 -217.03,-107 -199.66,407.58 -409.51,1694.87 -555.39,1962.09 -56.53,3740.24 380.29,-2090.04 380.01,-1127.89 852.67,-1639.44 172.36,3521.55 508.24,4325.96 1156.02,7201.66 729.41,-1268.8 122.72,-1100.58 428.27,-2462.05 814.61,2877.36 1970.91,6573.19 3973.53,8026.49 -371.18,-1392.63 -184.76,-391.59 -720.03,-1665.64 -911.41,-2169.74 -103.14,-1643.3 -14.89,-1831.92 1214.75,3833.17 2694.25,3022.96 5484.18,3682.32 -1652.12,-519.54 -1464.87,-340.02 -2203.93,-1158.22 1688.53,-1522.79 322.1,248.46 5336.93,-40.54 2954.57,-170.15 10700.32,-3676.25 16766.1,-4126.58 -553.19,427.16 332.3,254.26 -1264.12,659.08 -36.95,9.38 -1181.94,134.58 -1277.08,146.71 -1135.61,147.81 -1869.7,303.34 -2881.21,442.61 598.41,305.27 -897.63,533.88 2588.07,174.83l14918.74 -1483.07c2698.38,-201.59 753.12,499.41 3525.41,309.13 1002.41,-68.66 -62.32,-97.62 1106.38,45.78l-113.62 -500.52 248.75 -1515.06 2108.24 -735.2c-93.49,-738.23 -909.76,-3621.38 2259.63,-3988.7 -10.75,-1.38 -2198.41,-843.57 -1035.5,1667.29 348.84,753.4 -502.45,-74.46 324.3,392.14 1715,-515.96 5657.09,-6375.19 5501.01,-7773.88 -713.69,-67.01 -1424.89,-35.57 -2066.6,-94.86l-1362.02 -320.17c-871.7,-1939.75 -1057.57,-456.39 298.66,-2854.47 913.89,-1616.27 106.17,-1441.16 1464.05,-1886.52 869.77,1546.78 296.45,1492.45 162.97,3202.21l2457.37 79.42 802.48 -3441.03 1093.69 436.54c864.26,911.42 563.67,1311.55 279.36,2917.35 3588.56,197.45 3071.49,616.61 3600.41,-294.25 -2411.03,-2268.73 -876.38,-3563.46 982.84,-2041.78 525.61,430.47 815.17,797.8 1192.14,1345.2 -235.23,784 -392.69,947.26 -740.16,1529.12 1718.86,175.94 2921.76,-98.17 2499.28,1499.63 -456.95,370.9 -6.34,322.09 -850.74,528.64 -373.11,91.28 -753.95,31.17 -1131.2,11.86 -680.32,-35.02 -1478.94,-184.21 -2215.51,-230.54 -1334.17,-83.83 -2844.27,-146.98 -4180.36,-153.88l-438.19 1354.85c2920.92,458.32 6060.81,-347.47 6912.66,792.28 938.71,2237.57 -1451.37,3383.11 -2596.35,5009.31 1074.66,1374.42 2234.26,1363.39 3284.94,1887.9 1467.63,732.44 270.25,44.68 1043.22,756.98l-392.41 1440.61c-2804.01,376.15 -4606.42,-1674.73 -6410.49,-2569.6 -1934.78,863.16 -4310.52,2188.49 -6523.83,1418.83 -760.29,398.76 -884.66,229.71 -2150.43,275.49l-323.2 1400.07 7877.84 517.34c1544.03,48.26 981.74,-212.89 2286.94,-366.22 7210.77,-846.06 21030.02,3824.89 23341.78,3594.35 1642.47,-163.81 3027.1,-880.52 4688.87,-1156.02 -747.88,1837.17 -939.54,1334.17 -2717.41,2125.07 2309.55,1549.81 981.18,236.61 4892.66,506.86 565.6,-1839.37 1384.63,-916.1 2387.32,-6511.15l621.3 1599.18c447.02,-2131.13 2925.62,-5644.96 2347.89,-8168.23 -326.79,-1426.54 -846.88,-1429.85 -885.77,-2840.13l185.32 -41.36 -1202.35 -529.75c722.79,2051.71 1894.25,5842.13 205.17,8027.31 -519.54,671.77 -163.25,157.19 -763.87,684.45 899.55,-3746.85 1307.14,-3231.99 149.74,-7047.78 -1108.59,-3655.3 -525.61,-1228.54 -2488.52,-3693.35 735.74,828.95 564.77,796.14 1103.06,1726.58 878.87,1519.47 1151.06,155.81 289.28,1475.9 -1188.83,-1402.55 -220.33,-926.02 -2010.06,-2097.76 -2570.98,-1683.01 -4427.17,-3081.97 -8171.54,-4150.02 888.8,1100.86 820.41,693.55 1366.43,978.97 1256.39,656.88 427.43,66.19 1125.68,947.54l-12710.67 -3367.67c-1394.28,316.86 -4038.34,-823.44 -6401.66,-1063.36 -10328.87,-1047.92 -11349.21,-1704.24 -23880.08,590.69l2703.63 -882.18c550.43,-103.69 1107.75,-169.59 1646.33,-277.42l1632.26 -561.46c-6403.59,-587.11 -11352.51,690.24 -17209.26,888.8l5141.41 -179.8c-825.1,620.2 772.98,201.03 -1317.06,699.62l-8492.81 1103.9c-1805.45,241.57 -7867.92,1889.55 -8025.66,1865.84 1848.19,-642.82 3476.6,-1575.46 5979.19,-2101.07 1792.21,-376.15 4724.45,-726.38 6228.2,-1258.33 -2816.13,-223.92 -11904.6,1786.42 -14943,2548.64 -9997.12,2508.11 -9053.72,4544.65 -11984.57,5392.63l2016.41 -2829.65c-1836.34,657.71 -2687.35,1883.22 -3335.96,3579.74 -62.87,164.36 -310.51,881.35 -320.17,897.62l-1032.74 810.21 907.82 -3461.71 -1314.86 1178.63c-534.16,677.83 -542.71,880.25 -828.95,1592.83 -428.27,-1034.4 -51.85,-376.97 -591.8,-722.51z"/>
   <path class="fil2" d="M68392.59 29946.71c-339.47,434.89 -112.78,265.57 -503.82,876.39 6467.84,185.04 14324.73,276.32 20520.95,1348.23 4697.97,812.68 13758.58,2809.52 17192.44,4661.57l-157.47 1390.42c-2147.12,-381.39 -5762.71,-1842.13 -8546.3,-2538.44 -2979.67,-745.12 -6202.84,-1345.19 -9274.06,-1818.13 -13388.23,-2060.54 -28559.29,-1865.29 -42039.62,29.5 -8702.94,1223.31 -15503.91,4013.52 -17524.18,4323.76l-145.61 -1388.77c3962.5,-2013.37 11937.14,-3636.26 16915.85,-4478.46 7752.92,-1311.55 15332.11,-973.46 20048.28,-1714.72 -378.63,-322.09 309.96,-243.23 -579.66,-613.86 -7033.17,-879.42 -24491.17,1857.3 -32232.24,4436.27 -740.99,247.09 -4081.91,1529.68 -4532.23,1505.14 -1248.68,-67.56 -1330.86,-1365.87 -4516.8,-48.26 -2534.58,-4215.1 -5507.07,-10315.08 -7069.02,-15717.63 1089.01,-333.96 1159.6,-571.12 2182.42,-964.09 -17.37,-514.58 -492.79,-514.85 199.66,-407.58l282.66 -3418.69c3579.74,-1010.41 6859.44,-2340.16 10969.2,-3305.9 11382.85,-2674.94 25685.8,-4412.55 37376.39,-4429.1 9576.85,-13.78 42169.51,3218.21 47908.22,8090.19l-5.51 2297.42 -185.32 41.36c1125.41,955.54 1278.74,1541.82 2855.85,2158.16 -1295.56,4505.49 -4738.51,12312.18 -7059.92,15634.35 -1675.56,-714.79 -3027.1,-484.52 -4446.2,210.96 -10567.4,-3723.13 -25180.59,-6933.89 -37633.96,-6160.09zm-50750.28 -14717.15l558.16 929.61 -304.45 2043.72c-1009.86,766.63 -2735.06,2674.66 -4225.03,993.58 -1489.15,-1542.91 -440.95,-2962.01 493.62,-3786.83 -1198.48,565.32 -2136.92,1421.58 -1512.86,3303.14 439.02,1324.23 1498.25,1375.25 2788.56,1976.98l1255.85 4266.39c688.04,1162.09 2462.6,5173.67 2576.49,6609.32 939.54,753.39 1691.28,2304.03 1876.04,3473.84 1236.27,761.94 496.94,251.77 1242.61,1409.17 -129.61,537.75 -392.41,1047.92 -422.2,1585.94 -62.87,1137.26 453.92,1287.56 541.06,1387.66 0.55,-439.57 -57.91,-1034.4 4.69,-1421.58 138.71,-861.22 -68.95,-44.95 143.95,-633.72 560.36,-1548.15 -44.68,6.07 502.45,-758.08 2500.65,-1254.47 4132.09,-617.72 4083.83,2520.79l-1449.98 1307.41c-634.54,1307.97 -619.37,1076.32 -1919.34,1413.03 -1502.11,813.79 -2373.81,904.25 -3555.19,59.29 -3041.99,-1691.55 -5947.75,-9917.97 -7084.19,-12747.07 -625.72,-1794.96 -1224.68,-3189.52 -2184.63,-4966.56 -862.88,-1597.52 -2117.34,-3168.02 -2178.84,-5144.72 -808.55,-834.75 -602.83,-2887.28 59.29,-3868.19 576.91,-854.33 1574.63,-1188.56 2820.83,-1768.77 1567.73,-729.96 5795.8,-1900.04 7711.28,-2104.66 28728.61,-8342.23 57624.06,-9206.49 87187.69,-2030.47 2063.02,241.85 16836.98,3592.14 18080.96,6171.95 703.76,1459.36 390.21,4728.3 -1249.5,6199.52l-3312.24 7725.9c-565.87,2649.85 -4532.24,11095.78 -6968.64,12721.15 -1232.13,822.06 -3037.85,386.9 -4302.52,-488.66 -424.41,-293.97 -432.4,-370.91 -711.21,-632.89l-249.01 -317.41c-3512.18,-2163.39 -911.97,-6258.54 2402.21,-4070.32l790.07 1368.91 -474.32 1035.78c-425.51,753.12 -614.69,1145.81 -1925.13,655.5 -1145.26,-428.27 -969.6,-883.28 -793.11,-1669.77 323.75,-1342.71 257.84,-32.82 1551.19,-764.15 -1965.12,-1346.3 -2789.66,334.23 -2572.63,1398.41 113.34,555.12 757.53,1298.31 1058.39,1747.26 2077.63,431.3 2253.57,501.9 3493.15,-849.36l-214.55 -2652.61c366.5,-1529.4 1212.83,-2376.56 2004.83,-3931.06 559.81,-1098.38 1411.1,-3360.78 1957.67,-4140.65l2990.42 -8132.1c1506.52,-617.72 1690.73,-528.09 2766.5,-1786.97l-123.82 -2368.84 -1459.36 -1061.98c1.38,2.75 349.95,795.59 393.52,869.22 1585.66,1169.8 641.71,2708.31 -942.3,3494.52 -4050.74,-375.04 -3130.51,-2738.92 -3013.31,-4579.39 -71.7,-69.22 -158.84,-172.36 -210.41,-212.34 -1066.66,-827.03 -2772.56,-1311 -4087.97,-1761.88 -3111.21,-1067.22 -14089.78,-3249.92 -14089.78,-3842.82l-6198.42 -771.87c-14085.1,-1829.99 -25386.04,-2399.73 -39671.88,-1088.18 -8091.02,742.92 -28845.54,3958.09 -33928.48,7685.91zm25158.53 -9881.85c-2327.75,-455.01 -7407.66,1496.87 -10114.59,1588.42 -1522.24,867.84 -2004.83,631.24 -3726.45,1044.61 -1243.71,298.66 -2467.01,618 -3693.07,967.94 -2418.48,689.7 -4924.65,1137.55 -7335.41,1783.39 -7025.45,1882.39 -11082.54,2203.66 -10332.45,8365.13l127.4 1005.45c1370.84,962.7 5203.46,9990.22 6098.6,12030.62 2749.4,6266.54 1380.49,6329.41 6968.36,11260.41 2392.56,-162.98 4251.23,-1269.91 5948.3,-1885.15 415.58,-674.8 305,-507.96 879.98,-907.82l352.98 -1486.94c2010.34,-1344.09 12937.07,-3677.63 15690.88,-3974.08l6957.89 -799.18c-81.08,183.67 -220.89,164.36 -278.25,306.38l1039.09 527.54 522.03 160.5 -820.96 -925.75c15691.99,-878.59 19818.57,-1387.11 35321.37,197.17 3470.81,354.64 7820.21,1888.46 10481.37,1991.6 10121.21,1791.38 9616.56,4363.46 10887.57,5384.08 1156.57,928.51 2559.4,1130.92 4188.35,1349.6 1778.98,-102.86 1622.07,-1067.49 2958.44,-1523.06 730.23,-1554.5 1716.1,-2790.49 2632.75,-4560.37 1174.49,-2267.91 5039.64,-12818.76 6730.37,-14065.23l931.27 -2827.72c1512.58,-4870.05 375.87,-6381.53 -3982.36,-7908.18 -2907.14,-1018.13 -6811.73,-2054.19 -9951.61,-2728.44 -3412.9,-732.99 -6778.91,-1813.17 -10150.17,-2582.56 -16849.38,-3845.58 -41492.5,-5227.73 -58331.68,-1788.36z"/>
   <path class="fil0" d="M93192.9 37146.99c3361.88,-436.54 7540.86,1289.76 9250.07,2975.25 -3445.72,-1625.37 -8055.44,-2007.31 -9250.07,-2975.25zm-83871.04 792.83l147.81 604.48c90.45,95.97 282.39,52.95 331.47,216.2 356.3,1185.8 -102.3,-378.35 648.06,414.21l-298.11 -1192.7 -2804 -7310.04c1483.63,888.52 1283.15,1756.91 2657.85,4473.5 826.47,1633.64 1446.95,2984.35 2179.94,4619.1 43.84,92.11 107,129.06 126.02,278.25l726.1 1701.76c669.01,1123.2 481.49,579.66 1346.57,1318.44 3033.44,-1132.02 2487.7,-246.81 2773.12,59.29 1272.94,424.41 1126.78,394.9 1836.61,1369.19 85.49,2247.78 -864.26,2762.09 -3085.84,2909.07 -1374.97,-353.26 -285.14,59.01 -720.85,-726.92 -164.91,341.4 -178.7,-14.89 -58.47,762.22 121.62,260.87 -287.07,371.73 623.51,714.51 1470.67,554.02 3288.8,-273.01 4480.95,-1028.06 1334.99,-845.5 2971.39,-1945.81 4587.66,-2375.18 1762.98,-2056.68 2191.8,-1204.56 3633.24,-2387.6 986.69,-810.2 38.6,403.73 266.94,-395.72 57.08,-199.11 -799.73,-515.14 2124.23,-1547.33 2538.72,-271.91 6433.66,-2326.1 10072.13,-2507.83 654.4,-512.38 1323.41,-694.94 2389.8,-526.44 1632.27,258.12 78.59,538.57 2189.04,400.14 1811.79,-118.86 3473.57,-982.29 5285.91,-782.08 3248.54,234.68 6709.42,-1043.5 10105.49,-734.09 3193.39,-2672.46 30793.29,1148.02 36690.56,2719.34 8013.53,2135.54 3029.86,1522.51 9129.28,4440.68 370.36,-561.19 -710.65,-491.97 1009.86,-389.66 -576.9,-979.8 -4482.05,-3984.56 -4624.62,-4043.3 -1911.62,-789.25 -4699.9,-910.03 -6204.21,-2395.31 -2661.16,-103.14 -7010.56,-1636.96 -10481.37,-1991.6 -15502.81,-1584.28 -19629.39,-1075.76 -35321.37,-197.17l820.96 925.75c2777.53,-198.28 8897.63,-1712.24 11116.73,-418.61 -881.9,378.62 -13360.1,1297.76 -13569.41,1199.86l1930.65 -941.75 -1039.09 -527.54c57.36,-142.02 197.17,-122.71 278.25,-306.38l-6957.89 799.18c-336.98,262.8 -148.63,279.35 -773.25,530.85l-3132.16 730.51c-1322.03,320.99 -2818.07,830.88 -4139.27,1241.23 -2912.93,904.51 -5216.42,1855.63 -7999.18,2958.43 -574.98,399.86 -464.4,233.02 -879.98,907.82 -1077.42,1462.4 -1735.13,438.75 -2679.08,2218.83 -4217.58,1120.99 -6230.96,-1614.07 -7868.19,-3633.24 -1357.05,-1673.63 -3904.59,-5345.75 -4822.07,-7533.41l2923.41 3204.14c-296.45,-1449.98 -3803.38,-8412.28 -4787.6,-10084.53 -1002.69,1780.07 -526.16,2903.55 -2967.53,3821.86l2781.39 8437.65z"/>
   <path class="fil3" d="M69835.41 28802.28l-2232.61 370.91c1454.94,599.24 850.74,-177.87 983.93,-272.74l-2850.33 -143.95 113.62 500.52c-1168.7,-143.4 -103.97,-114.44 -1106.38,-45.78 -2772.29,190.28 -827.03,-510.72 -3525.41,-309.13l-14918.74 1483.07c-3485.7,359.05 -1989.66,130.44 -2588.07,-174.83 1011.51,-139.27 1745.6,-294.8 2881.21,-442.61 95.14,-12.13 1240.13,-137.33 1277.08,-146.71 1596.42,-404.82 710.93,-231.92 1264.12,-659.08 -6065.78,450.33 -13811.53,3956.43 -16766.1,4126.58 -5014.83,289 -3648.4,-1482.25 -5336.93,40.54 739.06,818.2 551.81,638.68 2203.93,1158.22 -2789.93,-659.36 -4269.43,150.85 -5484.18,-3682.32 -88.25,188.62 -896.52,-337.82 14.89,1831.92 535.27,1274.05 348.85,273.01 720.03,1665.64 -2002.62,-1453.3 -3158.92,-5149.13 -3973.53,-8026.49 -305.55,1361.47 301.14,1193.25 -428.27,2462.05 -647.78,-2875.7 -983.66,-3680.11 -1156.02,-7201.66 -472.66,511.55 -472.38,-450.6 -852.67,1639.44 -498.86,-1778.15 -352.98,-2045.37 56.53,-3740.24 -1022.82,392.97 -1093.41,630.13 -2182.42,964.09 1561.95,5402.55 4534.44,11502.53 7069.02,15717.63 3185.94,-1317.61 3268.12,-19.3 4516.8,48.26 450.32,24.54 3791.24,-1258.05 4532.23,-1505.14 7741.07,-2578.97 25199.07,-5315.69 32232.24,-4436.27l4093.21 -77.49c12453.38,-773.8 27066.57,2436.96 37633.96,6160.09 1419.1,-695.48 2770.64,-925.75 4446.2,-210.96 2321.41,-3322.17 5764.36,-11128.86 7059.92,-15634.35 -1577.11,-616.34 -1730.44,-1202.62 -2855.85,-2158.16 38.89,1410.28 558.98,1413.59 885.77,2840.13 577.73,2523.27 -1900.87,6037.1 -2347.89,8168.23l-621.3 -1599.18c-1002.69,5595.05 -1821.72,4671.78 -2387.32,6511.15 -3911.48,-270.25 -2583.11,1042.95 -4892.66,-506.86 1777.87,-790.9 1969.53,-287.9 2717.41,-2125.07 -1661.77,275.5 -3046.4,992.21 -4688.87,1156.02 -2311.76,230.54 -16131.01,-4440.41 -23341.78,-3594.35 -1305.2,153.33 -742.91,414.48 -2286.94,366.22l-7877.84 -517.34z"/>
   <path class="fil4" d="M19464.31 11309.25c-1005.73,718.1 -5720.24,2086.18 -7373.74,2802.63 -3011.38,1304.38 -1420.21,4721.96 -1118.79,7392.77 -1414.41,-1552.02 -1504.87,-3375.67 -1496.59,-5735.96 -848.54,1219.99 -658.53,1738.99 -602.28,3282.18 61.5,1976.7 1315.96,3547.2 2178.84,5144.72 959.95,1777.04 1558.91,3171.6 2184.63,4966.56l443.98 -501.34 -2014.2 -6048.13c132.92,13.51 732.44,412.27 849.09,513.48 1318.99,992.21 3718.44,6370.5 3811.65,8632.9 -700.17,-1317.9 -16.27,-105.9 -755.6,-713.41l1405.31 3704.93c52.12,30.33 325.41,185.59 439.85,241.85l1407.52 2854.47c1072.46,-414.76 640.33,-436.27 640.33,897.62 -1699.56,-172.36 -702.93,-196.35 -951.67,58.19 712.58,1273.21 1157.39,1907.75 1807.93,3106.51 1181.38,844.96 2053.08,754.5 3555.19,-59.29 -2055.3,-1622.89 -2036.54,-292.31 -3865.16,-3226.47 -738.23,-1184.7 -1715.82,-4000.56 -2069.08,-5260.54 1162.64,1751.95 1427.65,4054.33 3478.25,5523.89l-271.08 -3847.5c-184.76,-1169.81 -936.5,-2720.45 -1876.04,-3473.84l295.07 1052.05c-147.81,-90.18 -434.88,-328.99 -488.66,-191.38 -38.88,99.55 -223.37,-143.13 -519.54,-380.56l386.35 1165.94c-265.57,-1245.36 -2679.08,-3788.49 -4540.24,-10083.71 -673.42,-2277.56 -71.15,-1229.92 -1771.8,-2075.42 -1006.28,-500.52 -1360.91,-1068.6 -1337.47,-2604.07 22.06,-1448.33 897.62,-3030.68 2148.5,-3717.07 235.23,-129.06 1057.57,-285.14 1327.54,-335.06l712.59 681.42 1227.44 350.5 536.36 2019.45c-888.79,879.97 -899.55,1057.29 -2136.64,1285.63l-1441.16 463.28c1489.97,1681.08 3215.17,-226.95 4225.03,-993.58l304.45 -2043.72 -558.16 -929.61c-899.55,-669.56 -466.32,470.74 -855.15,-993.86 247.09,-212.34 209.31,-319.89 725.82,-532.79l5802.42 -2241.98c3.86,-4.69 -1.38,-59.57 0.27,-63.16 1.66,-2.75 -23.71,-32.81 -19.3,-50.19 6336.86,-1687.69 4283.77,-1445.57 11399.95,-2882.04 1289.49,-260.32 10130.03,-2257.71 11614.77,-2048.68 1317.34,185.6 341.95,-321.54 1112.99,592.9 3195.59,-1077.14 10959.27,-1818.41 14614.84,-1303.27l-744.29 217.85c1868.87,-219.78 4657.16,-20.68 6813.93,-111.68 1687.42,-71.43 5352.37,-144.78 6894.19,154.15 4698.8,910.03 7655.02,558.98 12238,1518.1l8377.81 819.03c2462.05,-303.34 9866.68,1440.61 11033.45,974.84 -29563.63,-7176.02 -58459.08,-6311.76 -87187.69,2030.47z"/>
   <path class="fil3" d="M18331.18 18828.05c539.95,345.54 163.53,-311.89 591.8,722.51 286.24,-712.58 294.79,-915 828.95,-1592.83l1314.86 -1178.63 -907.82 3461.71 1032.74 -810.21c9.66,-16.27 257.3,-733.26 320.17,-897.62 648.61,-1696.52 1499.62,-2922.03 3335.96,-3579.74l-2016.41 2829.65c2930.85,-847.98 1987.45,-2884.52 11984.57,-5392.63 3038.4,-762.22 12126.87,-2772.56 14943,-2548.64 -1503.75,531.95 -4435.99,882.18 -6228.2,1258.33 -2502.59,525.61 -4131,1458.25 -5979.19,2101.07 157.74,23.71 6220.21,-1624.27 8025.66,-1865.84l8492.81 -1103.9c2090.04,-498.59 491.96,-79.42 1317.06,-699.62l-5141.41 179.8c5856.75,-198.56 10805.67,-1475.91 17209.26,-888.8l-1632.26 561.46c-538.58,107.83 -1095.9,173.73 -1646.33,277.42l-2703.63 882.18c12530.87,-2294.93 13551.21,-1638.61 23880.08,-590.69 2363.32,239.92 5007.38,1380.22 6401.66,1063.36l12710.67 3367.67c-698.25,-881.35 130.71,-290.66 -1125.68,-947.54 -546.02,-285.42 -477.63,121.89 -1366.43,-978.97 3744.37,1068.05 5600.56,2467.01 8171.54,4150.02 1789.73,1171.74 821.23,695.21 2010.06,2097.76 861.78,-1320.09 589.59,43.57 -289.28,-1475.9 -538.29,-930.44 -367.32,-897.63 -1103.06,-1726.58 1962.91,2464.81 1379.93,38.05 2488.52,3693.35 1157.4,3815.79 749.81,3300.93 -149.74,7047.78 600.62,-527.26 244.33,-12.68 763.87,-684.45 1689.08,-2185.18 517.62,-5975.6 -205.17,-8027.31l1202.35 529.75 5.51 -2297.42c-5738.71,-4871.98 -38331.37,-8103.97 -47908.22,-8090.19 -11690.6,16.55 -25993.55,1754.16 -37376.39,4429.1 -4109.76,965.74 -7389.46,2295.49 -10969.2,3305.9l-282.66 3418.69z"/>
   <path class="fil5" d="M72772.61 25335.33c726.64,-1513.41 1819.23,-1986.63 2503.69,-3909.28l1178.9 1337.75c290.94,466.6 473.5,774.36 698.8,1284.25 -1481.15,841.09 -2513.62,1161.53 -4381.39,1287.28zm4721.13 -4814.07l3948.99 151.12c-689.14,937.89 -1198.21,1449.16 -2326.1,1940.58 -1416.06,-1098.38 -1131.75,-977.05 -1622.89,-2091.7zm-7851.92 4055.71l-364.29 1433.99c1125.68,619.1 1478.39,477.08 2661.16,25.65l370.35 1090.11c2213.31,769.66 4589.05,-555.67 6523.83,-1418.83 1804.07,894.87 3606.48,2945.75 6410.49,2569.6l392.41 -1440.61c-772.97,-712.3 424.41,-24.54 -1043.22,-756.98 -1050.68,-524.51 -2210.28,-513.48 -3284.94,-1887.9 1144.98,-1626.2 3535.06,-2771.74 2596.35,-5009.31 -851.85,-1139.75 -3991.74,-333.96 -6912.66,-792.28l438.19 -1354.85c1336.09,6.9 2846.19,70.05 4180.36,153.88 736.57,46.33 1535.19,195.52 2215.51,230.54 377.25,19.31 758.09,79.42 1131.2,-11.86 844.4,-206.55 393.79,-157.74 850.74,-528.64 422.48,-1597.8 -780.42,-1323.69 -2499.28,-1499.63 347.47,-581.86 504.93,-745.12 740.16,-1529.12 -376.97,-547.4 -666.53,-914.73 -1192.14,-1345.2 -1859.22,-1521.68 -3393.87,-226.95 -982.84,2041.78l785.67 1016.48 -4709.01 -566.15 43.57 -3073.43 -1093.69 -436.54 -802.48 3441.03 -2457.37 -79.42c133.48,-1709.76 706.8,-1655.43 -162.97,-3202.21 -1357.88,445.36 -550.16,270.25 -1464.05,1886.52 -1356.23,2398.08 -1170.36,914.72 -298.66,2854.47l1362.02 320.17c641.71,59.29 1352.91,27.85 2066.6,94.86 156.08,1398.69 -3786.01,7257.92 -5501.01,7773.88z"/>
   <path class="fil5" d="M55149.14 21127.95c715.9,-568.08 -1167.87,-145.61 1045.71,-477.08 473.5,-70.87 1606.07,-47.15 2127.27,-63.42 -622.68,513.75 812.14,389.93 -1566.63,763.04 -896.25,140.64 -1012.07,37.23 -1606.35,-222.54zm-2669.7 -2297.97l7188.43 -850.19c1839.92,152.22 525.33,-1.66 979.8,467.15 -957.19,706.52 -2411.86,632.33 -3631.03,703.48 -2379.05,138.99 -3659.98,567.81 -4537.2,-320.44zm2606.83 -6267.09c-1235.99,203.24 -2276.19,221.17 -3469.98,424.41 -3361.33,572.21 -2508.11,424.68 -3023.52,1246.47 1434.27,1189.38 4493.08,365.11 6509.49,289.83l-511.27 313.82c-2346.78,762.22 -4025.1,-78.04 -4758.92,1668.39 1910.24,783.46 7657.23,-321.27 10361.69,-363.18 -2443.58,1177.25 -6501.77,577.18 -9376.37,1538.23 -277.97,1869.15 -109.76,2395.04 698.52,3939.33 -2046.75,202.97 -2192.08,-64.53 -2524.93,1467.91 1888.73,798.9 15058.83,-838.33 15223.46,-900.65 171.53,-64.81 561.74,-307.48 657.16,-487.28 1127.61,-2125.89 -3255.44,-949.75 -4528.93,-921.62l2046.19 -774.63c292.87,-1831.92 250.12,-2672.18 -544.91,-4003.31 1349.88,-628.2 737.67,361.53 857.08,-1378.56 -1288.11,-319.34 -1301.62,-282.67 -2640.75,-187.53 -2165.05,153.88 -1738.71,388.28 -2529.33,-200.75 1573.25,-554.02 7301.21,20.13 5864.46,-1772.64 -314.1,-337.54 1600.01,-776.83 -2742.5,-289.83 -1106.38,124.1 -2150.71,216.2 -3268.67,247.37l-321.55 -529.75c-697.41,-1070.26 160.78,-28.13 -286.24,-508.52 -613.59,-660.19 8.27,-271.08 -1037.44,-531.68 -643.92,957.47 -234.68,597.87 -652.74,1714.17z"/>
   <path class="fil5" d="M36073.49 19798.47c118.03,422.48 30.33,445.37 45.22,774.64l-3209.65 673.14 -297 -1922.65 2940.78 -643.36c186.42,322.09 206.83,-4.97 520.65,1118.23zm-638.13 -3304.52l-3321.06 895.7 -919.41 -1139.75c-849.64,-690.24 -227.51,-419.44 -1055.09,-170.15l-352.43 1879.08c-1614.34,490.32 -2438.33,271.08 -2528.23,1903.9 1741.74,537.75 1554.5,165.18 3291.56,26.2l227.78 1619.03c-2833.23,1599.72 -3762.84,499.96 -3807.79,2460.39 1783.93,840.82 2402.76,20.13 4192.76,-50.19 -2429.78,3786.84 -3382.28,1965.4 -3552.16,4437.65 1746.16,713.41 2546.16,-666.25 3752.92,-1472.87 -818.75,3288.25 -2321.96,2840.4 -1102.24,4116.65 113.89,90.18 -427.17,677.01 967.11,374.49 914.45,-198.55 2968.92,-3334.57 938.44,-5006l-489.76 -360.7c2331.89,-2207.52 -563.12,-2822.48 5023.93,-3428.07l2892.8 1869.71 -544.37 1061.7c2255.78,2327.48 2800.42,3613.65 3674.88,2831.58 9.1,-8.27 1183.04,-22.34 92.1,-1807.38 -380.56,-622.96 -759.18,-811.86 -1225.78,-1538.23l2855.29 -199.1c-425.78,-1328.93 379.18,-713.69 -926.58,-1303.83 -503.82,-227.79 -2876.8,-320.17 -4470.74,-1576.56 2256.61,-574.15 3312.8,-9.1 2970.57,-2254.4 -1805.45,-384.7 -2104.1,65.35 -3711.55,223.09l-340.3 -1871.63c1791.66,-798.9 2824.96,-108.93 2359.47,-2033.78 -1421.03,-621.86 -1117.96,-279.63 -2859.71,-2.49 -977.04,-1478.11 -198.55,-1054.25 -1532.16,-1367.25l-500.25 1883.21z"/>
   <path class="fil6" d="M42800.83 5347.71c16839.18,-3439.37 41482.3,-2057.22 58331.68,1788.36 3371.26,769.39 6737.27,1849.57 10150.17,2582.56 3139.88,674.25 7044.47,1710.31 9951.61,2728.44 4358.23,1526.65 5494.94,3038.13 3982.36,7908.18 701.28,-424.96 801.1,7.44 1230.2,-1397.31 2332.16,-7630.49 -16605.06,-11870.68 -19462.83,-12072.82 257.29,150.84 72.8,146.98 903.13,456.67l6276.47 1956.84c-1253.64,489.21 -2445.51,-273.56 -4617.72,-852.39 -21436.23,-5710.59 -11812.22,-3443.23 -35685.67,-5842.69 -8418.07,-846.33 -14751.9,398.76 -22596.1,394.9 -10860.82,-5.24 -12155.55,1382.98 -20564.52,3000.08 4215.93,-391.04 8565.89,-1708.11 13335.28,-1668.12 -1613.51,858.74 -532.5,253.15 -1234.06,1017.3z"/>
   <path class="fil7" d="M47424.07 7009.76c-771.04,-914.44 204.35,-407.3 -1112.99,-592.9 -1484.74,-209.03 -10325.28,1788.36 -11614.77,2048.68 -7116.18,1436.47 -5063.09,1194.35 -11399.95,2882.04 -4.41,17.38 20.96,47.44 19.3,50.19 -1.65,3.59 3.59,58.47 -0.27,63.16l-5802.42 2241.98c-516.51,212.9 -478.73,320.45 -725.82,532.79 388.83,1464.6 -44.4,324.3 855.15,993.86 5082.95,-3727.82 25837.47,-6942.99 33928.48,-7685.91 14285.85,-1311.55 25586.79,-741.81 39671.88,1088.18 -381.67,-273.56 -274.12,-303.62 -931.82,-552.92 -104.52,-39.71 -855.43,-194.14 -1018.41,-223.37 -863.98,-154.7 -1076.6,-110.03 -2051.71,-370.63 -4582.98,-959.12 -7539.2,-608.07 -12238,-1518.1 -1541.82,-298.93 -5206.77,-225.58 -6894.19,-154.15 -2156.77,91 -4945.06,-108.1 -6813.93,111.68l-15118.95 1298.87 1248.4 -213.45z"/>
   <path class="fil6" d="M108475.37 44587.74c-306.11,-318.51 -232.48,-381.38 -689.7,-684.45 -756.98,-501.35 -485.9,-251.5 -1078.8,-477.08 -6099.42,-2918.17 -1115.75,-2305.14 -9129.28,-4440.68 -5897.28,-1571.32 -33497.17,-5391.8 -36690.56,-2719.34 11426.42,904.79 9244.28,-1070.53 25840.51,1876.59 12489.22,2218 17555.62,5562.51 21747.84,6444.96z"/>
   <path class="fil6" d="M7287.53 21143.67c1117.13,1441.71 1985.8,2988.49 1331.95,5248.13 -491.14,1697.07 -1568.29,2832.4 -3673.49,2493.76 633.98,727.75 -76.94,-617.72 772.7,1052.88l1422.68 3549.95c697.69,1910.52 601.45,3212.97 2180.49,4451.44l-2781.39 -8437.65c2441.37,-918.31 1964.84,-2041.79 2967.53,-3821.86 984.22,1672.25 4491.15,8634.55 4787.6,10084.53l-2923.41 -3204.14c917.48,2187.66 3465.02,5859.78 4822.07,7533.41 1637.23,2019.17 3650.61,4754.23 7868.19,3633.24 943.95,-1780.08 1601.66,-756.43 2679.08,-2218.83 -1697.07,615.24 -3555.74,1722.17 -5948.3,1885.15 -5587.87,-4931 -4218.96,-4993.87 -6968.36,-11260.41 -895.14,-2040.4 -4727.76,-11067.92 -6098.6,-12030.62 285.14,1184.97 659.91,1013.99 -438.74,1041.02z"/>
   <path class="fil8" d="M7598.87 19097.2c-750.09,-6161.47 3307,-6482.74 10332.45,-8365.13 2410.76,-645.84 4916.93,-1093.69 7335.41,-1783.39 1226.06,-349.94 2449.36,-669.28 3693.07,-967.94 1721.62,-413.37 2204.21,-176.77 3726.45,-1044.61 -6258.27,123 -12022.08,2071.84 -17596.99,3356.64 1450.81,-803.31 3693.08,-1717.47 5710.04,-2411.86 2402.21,-827.3 4748.71,-1113.54 6150.99,-2165.87 -4261.16,446.74 -9117.97,2251.36 -12750.38,4015.45 -1718.86,834.74 -4127.96,2131.13 -5336.65,3060.19 -1811.52,1392.07 -2813.65,4637.85 -1264.39,6306.52z"/>
   <path class="fil6" d="M123568.66 8920.01c548.78,-805.52 -224.75,-430.48 805.8,-388.29 42.19,1.93 1118.51,408.14 1120.44,408.97 1158.22,608.34 733.26,655.77 1939.47,1176.7 218.13,-644.47 -970.42,-823.72 757.81,-372.29 -2527.96,-3225.1 -20942.32,-7195.04 -26036.02,-7556.02 -778.77,472.39 -509.34,151.94 -1082.39,449.5 -877.21,455.56 -245.16,27.85 -857.64,673.97l9415.8 2136.37c2366.64,584.08 1572.71,-113.34 2513.35,-228.61 1577.11,-193.59 10282.26,2936.1 11423.38,3699.7z"/>
   <path class="fil5" d="M53179.89 25341.12c1078.52,-469.08 3133.82,-448.95 4599.25,-483.97 4499.14,-107.55 2992.9,-371.18 3301.48,483.97 -1320.65,528.92 -3016.34,386.63 -4474.87,512.38 -4023.72,346.64 -2851.44,737.4 -3425.86,-512.38zm-2038.75 -1283.14c121.34,1473.15 80.52,2808.41 881.08,3918.38l7650.33 -797.52c2573.19,-191.66 4760.58,525.88 3212.97,-3851.37 -289.83,-141.19 310.51,-187.25 -902.03,-327.06 -687.49,-79.15 -81.36,-14.06 -756.16,8.55l-10086.19 1049.02z"/>
   <path class="fil9" d="M40916.79 37908.66l776.01 248.19c-1845.16,410.34 -3736.37,1007.93 -5636.41,1469.84 -4010.48,975.39 -5211.73,1986.35 -5211.73,789.8 -2923.96,1032.19 -2067.15,1348.22 -2124.23,1547.33 -228.34,799.45 719.75,-414.48 -266.94,395.72 -1441.44,1183.04 -1870.26,330.92 -3633.24,2387.6l1322.31 -186.97c328.43,-296.73 241.02,-308.59 794.21,-649.99 2962.29,-1827.78 14257.99,-4725.55 17614.63,-5405.59 1103.07,-223.65 2143.27,-461.36 3168.85,-617.17 1250.05,-189.72 2179.39,-110.3 3061.29,-887.14 -1812.34,-200.21 -3474.12,663.22 -5285.91,782.08 -2110.45,138.43 -556.77,-142.02 -2189.04,-400.14 -1066.39,-168.5 -1735.4,14.06 -2389.8,526.44z"/>
   <path class="fil10" d="M18559.52 32045.58c-461.09,-1587.32 -1314.04,-3140.99 -1973.95,-4618.28 -534.71,-1197.1 -1373.32,-3745.19 -1672.8,-5110.52l1783.39 2639.37 -1255.85 -4266.39c-1290.31,-601.73 -2349.54,-652.75 -2788.56,-1976.98 -624.06,-1881.56 314.38,-2737.82 1512.86,-3303.14l1320.38 -332.03 -712.59 -681.42c-269.97,49.92 -1092.31,206 -1327.54,335.06 -1250.88,686.39 -2126.44,2268.74 -2148.5,3717.07 -23.44,1535.47 331.19,2103.55 1337.47,2604.07 1700.65,845.5 1098.38,-202.14 1771.8,2075.42 1861.16,6295.22 4274.67,8838.35 4540.24,10083.71l-386.35 -1165.94z"/>
   <path class="fil8" d="M5481.25 9814.04c1104.45,-221.16 231.09,-232.19 615.24,301.97 641.16,-387.18 963.25,-678.67 1655.43,-1097 93.21,-56.54 1050.95,-519.27 1086.8,-523.96 1202.34,-153.6 489.48,-198.83 1124.3,374.21 2343.2,-2104.93 13145,-3466.12 15929.98,-5823.65 -5306.59,1085.14 -14417.4,3197.8 -19451.8,5791.39 -1573.53,810.76 -717,519.27 -959.95,977.04z"/>
   <path class="fil5" d="M33270.32 31118.17c958.85,469.08 1666.47,661.02 2862.74,179.53 2404.14,-967.67 -335.33,-7204.15 -1607.17,-7744.93 -1032.47,1650.19 87.97,3735.82 313.55,6001.53 -1264.94,918.58 -1078.8,201.03 -1569.12,1563.87z"/>
   <path class="fil10" d="M13236.38 29162.15c1136.44,2829.1 4042.2,11055.52 7084.19,12747.07 -650.54,-1198.76 -1095.35,-1833.3 -1807.93,-3106.51 248.74,-254.54 -747.89,-230.55 951.67,-58.19 0,-1333.89 432.13,-1312.38 -640.33,-897.62 -566.43,-179.8 -378.63,636.74 -1195.73,-1111.9 -54.88,-117.2 -301.69,-817.65 -308.31,-850.74 -289.28,-1426.54 -141.19,-446.47 96.52,-891.83 -114.44,-56.26 -387.73,-211.52 -439.85,-241.85l-1405.31 -3704.93 -468.8 -703.76 6.61 1084.87 -1428.75 -2765.95 -443.98 501.34z"/>
   <path class="fil11" d="M65736.4 28756.5l2850.33 143.95c-133.19,94.87 471.01,871.98 -983.93,272.74l2232.61 -370.91 323.2 -1400.07c1265.77,-45.78 1390.14,123.27 2150.43,-275.49l-370.35 -1090.11c-1182.77,451.43 -1535.48,593.45 -2661.16,-25.65l364.29 -1433.99c-826.75,-466.6 24.54,361.26 -324.3,-392.14 -1162.91,-2510.86 1024.75,-1668.67 1035.5,-1667.29 -3169.39,367.32 -2353.12,3250.47 -2259.63,3988.7l-2108.24 735.2 -248.75 1515.06z"/>
   <path class="fil12" d="M27621.51 40600.7c2782.76,-1102.8 5086.25,-2053.92 7999.18,-2958.43 1321.2,-410.35 2817.24,-920.24 4139.27,-1241.23l3132.16 -730.51c624.62,-251.5 436.27,-268.05 773.25,-530.85 -2753.81,296.45 -13680.54,2629.99 -15690.88,3974.08l-352.98 1486.94z"/>
   <path class="fil10" d="M8872.91 19050.87c-56.25,-1543.19 -246.26,-2062.19 602.28,-3282.18 -8.28,2360.29 82.18,4183.94 1496.59,5735.96 -301.42,-2670.81 -1892.59,-6088.39 1118.79,-7392.77 1653.5,-716.45 6368.01,-2084.53 7373.74,-2802.63 -1915.48,204.62 -6143.55,1374.7 -7711.28,2104.66 -1246.2,580.21 -2243.92,914.44 -2820.83,1768.77 -662.12,980.91 -867.84,3033.44 -59.29,3868.19z"/>
   <path class="fil8" d="M9469.67 38544.3c978.7,2917.9 2838.75,4291.22 3749.61,6516.94 1495.21,-958.02 1586.77,-1841.03 3937.41,-1938.93 -285.42,-306.1 260.32,-1191.31 -2773.12,-59.29 -865.08,-738.78 -677.56,-195.24 -1346.57,-1318.44l-726.1 -1701.76c-19.02,-149.19 -82.18,-186.14 -126.02,-278.25l-357.67 -8.27 -1676.12 -1774.29 298.11 1192.7c-750.36,-792.56 -291.76,771.59 -648.06,-414.21 -49.08,-163.25 -241.02,-120.23 -331.47,-216.2z"/>
   <path class="fil10" d="M23875.76 41849.92c1299.97,-336.71 1284.8,-105.06 1919.34,-1413.03l-175.11 -284.59c-1714.17,487.01 -2341.82,971.8 -3109.83,-730.23 -87.14,-100.1 -603.93,-250.4 -541.06,-1387.66 29.79,-538.02 292.59,-1048.19 422.2,-1585.94 -745.67,-1157.4 -6.34,-647.23 -1242.61,-1409.17l271.08 3847.5c-2050.6,-1469.56 -2315.61,-3771.94 -3478.25,-5523.89 353.26,1259.98 1330.85,4075.84 2069.08,5260.54 1828.62,2934.16 1809.86,1603.58 3865.16,3226.47z"/>
   <path class="fil8" d="M2227.75 25008c269.15,-194.42 -507.14,-1089.29 668.18,21.78 14.89,14.07 274.39,525.61 437.64,734.09 2137.48,2730.65 4132.65,-993.03 4162.16,-1188.83 -332.02,-1516.17 -1018.13,-3041.44 -2826.06,-1774.84l639.22 348.3c383.6,-510.17 -620.75,-465.77 765.53,-383.32 856.81,871.42 960.78,847.71 612.48,2550.02 -2084.25,1592.01 -3302.31,122.17 -3333.2,-2653.16l-735.74 1751.68c-593.45,-1471.77 -1124.31,-2353.13 -1631.17,-3950.37 -514.58,-1620.96 -132.09,-2529.89 -452.53,-4138.44 -1560.02,795.59 694.66,7701.63 1693.49,8683.09z"/>
   <path class="fil13" d="M51906.12 35334.92l-522.03 -160.5 -1930.65 941.75c209.31,97.9 12687.51,-821.24 13569.41,-1199.86 -2219.1,-1293.63 -8339.2,220.33 -11116.73,418.61z"/>
   <path class="fil14" d="M18559.52 32045.58c296.17,237.43 480.66,480.11 519.54,380.56 53.78,-137.61 340.85,101.2 488.66,191.38l-295.07 -1052.05c-113.89,-1435.65 -1888.45,-5447.23 -2576.49,-6609.32l-1783.39 -2639.37c299.48,1365.33 1138.09,3913.42 1672.8,5110.52 659.91,1477.29 1512.86,3030.96 1973.95,4618.28z"/>
   <path class="fil13" d="M33035.37 2997.63l-3406.55 846.6 -607.52 753.12 12056.27 -1853.98c-1841.57,-606.69 -6015.59,11.58 -8042.2,254.26z"/>
   <path class="fil15" d="M59399.55 31852.27c1251.98,374.21 3921.96,123.54 5644.95,113.06l4446.75 62.05c2749.95,-183.11 743.75,-9.93 1558.64,-689.14 -2525.2,-247.92 -9603.05,-431.58 -11650.34,514.03z"/>
   <path class="fil8" d="M90336.78 3126.41l8407.04 1469.29c-667.35,-1176.7 653.57,-816.55 -1955.19,-1431.79 -673.42,-158.84 -1205.93,-296.72 -1876.32,-417.78 -784.83,-141.2 -1909.69,-314.1 -2696.73,-292.04 -1851.5,51.84 -1664.25,470.46 -1878.8,672.32z"/>
   <path class="fil15" d="M47424.07 7009.76l-1248.4 213.45 15118.95 -1298.87 744.29 -217.85c-3655.57,-515.14 -11419.25,226.13 -14614.84,1303.27z"/>
   <path class="fil16" d="M23161.25 36608.69c-32.82,1524.17 -248.2,1384.35 424.13,2575.39 395.45,164.63 -662.12,466.05 1134.5,150.85l511.27 -55.43 421.38 -891.56 -664.05 311.07 -613.03 -1147.2c-1933.13,-540.22 852.95,-867.28 1736.23,-772.14 591.52,1429.57 744.57,2335.47 -491.69,3372.63l175.11 284.59 1449.98 -1307.41c48.26,-3138.51 -1583.18,-3775.26 -4083.83,-2520.79z"/>
   <path class="fil5" d="M40140.78 29541.06c324.86,-2356.71 -973.18,-3631.03 -3024.06,-3714.31 -341.13,1356.77 955.81,4262.81 3024.06,3714.31z"/>
   <path class="fil11" d="M72772.61 25335.33c1867.77,-125.75 2900.24,-446.19 4381.39,-1287.28 -225.3,-509.89 -407.86,-817.65 -698.8,-1284.25l-1178.9 -1337.75c-684.46,1922.65 -1777.05,2395.87 -2503.69,3909.28z"/>
   <path class="fil17" d="M10151.09 37982.01l1676.12 1774.29 357.67 8.27c-732.99,-1634.75 -1353.47,-2985.46 -2179.94,-4619.1 -1374.7,-2716.59 -1174.22,-3584.98 -2657.85,-4473.5l2804 7310.04z"/>
   <path class="fil18" d="M53179.89 25341.12c574.42,1249.78 -597.86,859.02 3425.86,512.38 1458.53,-125.75 3154.22,16.54 4474.87,-512.38 -308.58,-855.15 1197.66,-591.52 -3301.48,-483.97 -1465.43,35.02 -3520.73,14.89 -4599.25,483.97z"/>
   <path class="fil17" d="M6096.49 10116.01c-1056.47,1150.78 -1343.27,749.81 -2088.11,2453.22 -1047.09,2394.49 -343.89,3052.75 -339.47,3037.03 14.89,-53.5 120.78,183.11 177.31,276.87 594.28,-2220.2 1413.59,-4923.55 3745.2,-5845.99 666.25,-876.11 162.7,-546.85 1213.1,-778.22l1158.5 -389.66c-634.82,-573.04 78.04,-527.81 -1124.3,-374.21 -35.85,4.69 -993.59,467.42 -1086.8,523.96 -692.18,418.33 -1014.27,709.82 -1655.43,1097z"/>
   <path class="fil9" d="M2198.52 11602.12c163.25,286.8 893.48,-373.94 34.19,370.91 -465.77,2229.85 -824.82,2973.87 -562.84,5688.25 568.63,-1906.11 184.21,-2437.79 1312.1,-4624.34l2499.28 -3222.9c-1454.12,180.35 -2345.4,889.35 -3282.73,1788.08z"/>
   <path class="fil19" d="M13680.36 28660.81l1428.75 2765.95 -6.61 -1084.87c-102.04,-1931.75 -1946.09,-5324.52 -2587.25,-7215.73 -116.65,-101.21 -716.17,-499.97 -849.09,-513.48l2014.2 6048.13z"/>
   <path class="fil19" d="M24375.45 37551.81c701.55,-275.76 1184.7,-705.13 1277.08,836.13l-421.38 891.56 -511.27 55.43 -2209.72 87.14c768.01,1702.03 1395.66,1217.24 3109.83,730.23 1236.26,-1037.16 1083.21,-1943.06 491.69,-3372.63 -883.28,-95.14 -3669.36,231.92 -1736.23,772.14z"/>
   <path class="fil20" d="M30844.67 40416.49c0,1196.55 1201.25,185.59 5211.73,-789.8 1900.04,-461.91 3791.25,-1059.5 5636.41,-1469.84l-776.01 -248.19c-3638.47,181.73 -7533.41,2235.92 -10072.13,2507.83z"/>
   <path class="fil11" d="M32612.07 19323.6l297 1922.65 3209.65 -673.14c-14.89,-329.27 72.81,-352.16 -45.22,-774.64 -313.82,-1123.2 -334.23,-796.14 -520.65,-1118.23l-2940.78 643.36z"/>
   <path class="fil21" d="M29628.82 3844.23l3406.55 -846.6c-1722.17,-311.9 -4049.37,201.86 -5800.77,632.61l-4176.77 1166.77c-1155.19,498.31 -702.38,424.13 -992.48,715.34l7563.47 -1668.12z"/>
   <path class="fil22" d="M52479.44 18829.98c877.22,888.25 2158.15,459.43 4537.2,320.44 1219.17,-71.15 2673.84,3.04 3631.03,-703.48 -454.47,-468.81 860.12,-314.93 -979.8,-467.15l-7188.43 850.19z"/>
   <path class="fil13" d="M79776.55 1594.52c1378.83,609.72 6978.29,1024.48 8064.81,383.04 -1484.45,-905.07 -6644.61,-1031.09 -8064.81,-383.04z"/>
   <path class="fil7" d="M13670.99 19196.47l1441.16 -463.28c-1740.37,-245.16 -1227.17,-1500.18 -655.78,-2577.6l265.57 1848.74 870.32 -313.54c-30.61,-1131.2 -244.61,-1579.32 -704.86,-2374.64l-722.79 93.49c-934.57,824.82 -1982.77,2243.92 -493.62,3786.83z"/>
   <path class="fil15" d="M15102.5 30341.89l468.8 703.76c739.33,607.51 55.43,-604.49 755.6,713.41 -93.21,-2262.4 -2492.66,-7640.69 -3811.65,-8632.9 641.16,1891.21 2485.21,5283.98 2587.25,7215.73z"/>
   <path class="fil23" d="M15128.14 47435.87c-120.23,-777.11 -106.44,-420.82 58.47,-762.22 435.71,785.93 -654.12,373.66 720.85,726.92 -196.07,-675.63 -464.12,-1036.61 -272.73,-1804.9 0.27,-0.83 60.67,-1164.84 765.8,38.89 904.52,-1121 765.81,1441.98 742.09,-1334.44l734.37 189.45c-707.34,-1331.96 -2274.53,-392.42 -2851.71,161.6 -282.66,271.35 -763.87,900.93 -799.72,1416.34 -95.97,1384.63 516.51,1132.85 902.58,1368.36z"/>
   <path class="fil8" d="M7591.42 10037.14l438.2 285.14c-1354.3,499.42 -1749.75,1106.1 -2098.87,2882.6 1260.26,-549.61 394.35,92.93 1247.85,-937.61 1155.46,-1394.28 867.84,-1286.18 3155.33,-2296.32l-1529.41 -712.03c-1050.4,231.37 -546.85,-97.89 -1213.1,778.22z"/>
   <path class="fil24" d="M14887.4 15316.15l1503.76 435.44c105.06,1745.61 298.38,1155.74 -798.9,1939.2l-870.32 313.54 -265.57 -1848.74c-571.39,1077.42 -1084.59,2332.44 655.78,2577.6 1237.09,-228.34 1247.85,-405.66 2136.64,-1285.63l-536.36 -2019.45 -1227.44 -350.5 -1320.38 332.03 722.79 -93.49z"/>
   <path class="fil11" d="M77493.74 20521.26c491.14,1114.65 206.83,993.32 1622.89,2091.7 1127.89,-491.42 1636.96,-1002.69 2326.1,-1940.58l-3948.99 -151.12z"/>
   <path class="fil25" d="M5790.66 18715.81c-1140.57,-2940.78 -868.94,-2206.41 -66.74,-5277.91 -724.99,648.05 -1387.38,1527.75 -1327.54,3103.21 54.88,1440.89 389.38,1819.51 1394.28,2174.7z"/>
   <path class="fil0" d="M16400.53 45634.56l-194.14 970.42c1560.57,-138.71 1834.13,-312.17 2143.27,-1730.44 -487.01,-1131.75 213.16,-202.14 -472.67,-384.97l-734.37 -189.45c23.72,2776.42 162.43,213.44 -742.09,1334.44z"/>
   <path class="fil26" d="M81873.2 14547.31c-528.92,910.86 -11.85,491.7 -3600.41,294.25 284.31,-1605.8 584.9,-2005.93 -279.36,-2917.35l-43.57 3073.43 4709.01 566.15 -785.67 -1016.48z"/>
   <path class="fil3" d="M15592.26 17690.79c1097.28,-783.46 903.96,-193.59 798.9,-1939.2l-1503.76 -435.44c460.25,795.32 674.25,1243.44 704.86,2374.64z"/>
   <path class="fil27" d="M58322.12 20587.45c-521.2,16.27 -1653.77,-7.45 -2127.27,63.42 -2213.58,331.47 -329.81,-91 -1045.71,477.08 594.28,259.77 710.1,363.18 1606.35,222.54 2378.77,-373.11 943.95,-249.29 1566.63,-763.04z"/>
   <path class="fil10" d="M22510.16 39422.07l2209.72 -87.14c-1796.62,315.2 -739.05,13.78 -1134.5,-150.85 -672.33,-1191.04 -456.95,-1051.22 -424.13,-2575.39 -547.13,764.15 57.91,-790.07 -502.45,758.08 -212.9,588.77 -5.24,-227.5 -143.95,633.72 -62.6,387.18 -4.14,982.01 -4.69,1421.58z"/>
   <path class="fil19" d="M18823.98 37846.89l-1407.52 -2854.47c-237.71,445.36 -385.8,-534.71 -96.52,891.83 6.62,33.09 253.43,733.54 308.31,850.74 817.1,1748.64 629.3,932.1 1195.73,1111.9z"/>
   <path class="fil3" d="M25652.53 38387.94c-92.38,-1541.26 -575.53,-1111.89 -1277.08,-836.13l613.03 1147.2 664.05 -311.07z"/>
   <path class="fil28 str0" d="M104904.07 39655.5c617.59,-504.27 1374.06,-954.95 2223.35,-1320.93"/>
   <path class="fil28 str1" d="M109643.42 40233.7c736,-81.41 2146.68,-227.94 3108.77,-335.95"/>
   <path class="fil7" d="M59399.55 31852.27c2047.29,-945.61 9125.14,-761.95 11650.34,-514.03 -814.89,679.21 1191.31,506.03 -1558.64,689.14l-4446.75 -62.05c-1722.99,10.48 -4392.97,261.15 -5644.95,-113.06zm8993.04 -1905.56l-4093.21 77.49c889.62,370.63 201.03,291.77 579.66,613.86 -4716.17,741.26 -12295.36,403.17 -20048.28,1714.72 -4978.71,842.2 -12953.35,2465.09 -16915.85,4478.46l145.61 1388.77c2020.27,-310.24 8821.24,-3100.45 17524.18,-4323.76 13480.34,-1894.79 28651.4,-2090.04 42039.62,-29.5 3071.22,472.94 6294.39,1073.01 9274.06,1818.13 2783.59,696.31 6399.18,2157.05 8546.3,2538.44l157.47 -1390.42c-3433.86,-1852.05 -12494.47,-3848.89 -17192.44,-4661.57 -6196.22,-1071.91 -14053.11,-1163.19 -20520.95,-1348.23 391.04,-610.82 164.35,-441.5 503.82,-876.39z"/>
   <path class="fil4" d="M97441.1 9403.7c0,592.9 10978.57,2775.6 14089.78,3842.82 1315.41,450.88 3021.31,934.85 4087.97,1761.88 51.57,39.98 138.71,143.12 210.41,212.34 -117.2,1840.47 -1037.43,4204.35 3013.31,4579.39l408.42 -1143.88c36.67,-96.25 231.36,-530.03 284.04,-646.13 -630.13,344.99 -762.23,482.32 -1635.03,608.07 -1400.35,-585.45 -1517,-938.99 -1551.74,-2901.07l1140.57 -699.07 794.21 -707.62c1292.25,321.54 2001.25,112.51 2749.95,1368.63 1469.02,2465.64 -493.9,6532.65 -1917.68,9402.57l928.51 142.84c940.91,-1174.49 249.29,-1706.45 1921.82,-2618.96l-1917.41 5908.59 122.99 862.05 3312.24 -7725.9c166.29,-2582.01 1039.92,-4696.87 -576.9,-6295.21 619.92,2438.88 1059.22,2227.09 -358.22,4188.07 494.45,-2993.73 -209.86,-4696.86 -2768.98,-5671.15 -2244.75,-854.33 -4215.38,-1310.17 -6615.66,-1804.35 -4027.31,-829.5 -10168.92,-1690.73 -13802.99,-2948.23 -594,600.9 5.8,203.25 -963.25,375.32 -83.01,14.9 -847.16,-81.07 -956.36,-91z"/>
   <path class="fil10" d="M99360.71 9119.38c3634.07,1257.5 9775.68,2118.73 13802.99,2948.23 2400.28,494.18 4370.91,950.02 6615.66,1804.35 2559.12,974.29 3263.43,2677.42 2768.98,5671.15 1417.44,-1960.98 978.14,-1749.19 358.22,-4188.07 1616.82,1598.34 743.19,3713.2 576.9,6295.21 1639.71,-1471.22 1953.26,-4740.16 1249.5,-6199.52 -1243.98,-2579.81 -16017.94,-5930.1 -18080.96,-6171.95 -1166.77,465.77 -8571.4,-1278.18 -11033.45,-974.84l3742.16 815.44z"/>
   <path class="fil15" d="M91242.68 8631.83l6198.42 771.87c109.2,9.93 873.35,105.9 956.36,91 969.05,-172.07 369.25,225.58 963.25,-375.32l-3742.16 -815.44 -8377.81 -819.03c975.11,260.6 1187.73,215.93 2051.71,370.63 162.98,29.23 913.89,183.66 1018.41,223.37 657.7,249.3 550.15,279.36 931.82,552.92z"/>
   <path class="fil29" d="M129433.96 15332.42l712.03 12.14c-276.04,-2440.27 -1177.53,-4463.3 -2711.62,-5227.17 -1206.21,-520.93 -781.25,-568.36 -1939.47,-1176.7 -1.93,-0.83 -1078.25,-407.04 -1120.44,-408.97 -1030.55,-42.19 -257.02,-417.23 -805.8,388.29 3304.25,817.37 5146.65,2805.93 5865.3,6412.41z"/>
   <path class="fil8" d="M124562.53 11623.08c-405.65,-1566.91 -798.07,-1613.24 -2093.63,-2351.47 -2743.6,-1563.05 -2580.63,-390.21 -2589.73,-384.97l4683.36 2736.44z"/>
   <path class="fil5" d="M99881.64 25378.08c-1355.4,1168.15 -597.59,-256.47 -753.12,1510.92 3018.82,859.02 4344.44,-1558.91 5820.62,-2693.14l-1045.16 4800.56c-1559.46,160.77 -1126.78,-384.7 -2489.35,174.84 -56.53,2164.77 1341.06,2485.21 3371.53,2142.43 1349.88,-1359.81 1555.33,-3439.64 2125.06,-5843.78 1414.97,-5968.44 715.62,-2492.94 3311.97,-3958.92 370.91,-2139.95 247.91,-1355.67 -1666.46,-2297.42l-232.2 -2648.47c-1603.59,75.56 -520.65,-698.24 -1203.45,664.05 -9.1,18.48 -346.91,1467.08 -364.29,1532.99 -1904.17,-139.81 -3875.35,-1018.68 -4664.05,65.36 -617.44,1705.07 1100.86,1141.4 2650.95,1917.41 -850.19,1740.64 -2928.37,3718.17 -4862.05,4633.17z"/>
   <path class="fil5" d="M99881.64 25378.08c603.93,-1990.22 2231.51,-7736.66 2307.34,-9612.15 -939.54,-871.7 -6131.13,-1693.49 -6230.96,-1693.49 -51.84,83.56 -141.74,106.17 -160.5,247.37 -18.47,139.81 -119.68,193.58 -143.67,254.25 -31.44,79.42 -170.98,449.78 -207.93,563.67 -779.32,2401.93 -2380.7,6961.47 -2028.82,9033.31 2476.12,356.57 1847.09,-726.37 2492.66,-3172.7 470.46,-1782.56 735.2,-2971.67 964.08,-4811.31l3211.04 933.74c-300.31,2251.92 -2183.25,6299.63 -1711.96,8223.39l1508.72 33.92z"/>
   <path class="fil5" d="M97232.07 24958.08c741.53,-2125.89 2083.14,-5016.21 1430.95,-7544.72 -1365.32,288.46 -1257.77,1066.67 -1680.25,2687.91 -1860.88,7142.92 -4465.77,6119.27 -5749.75,7537.82 447.3,773.25 -49.36,924.93 1379.94,1018.69 1601.94,104.79 2987.67,-1385.18 3811.66,-1799.66 1192.42,2723.75 1037.71,2994 2324.72,3632.41 2541.47,-1476.19 -534.71,-3723.14 -1517.27,-5532.45z"/>
   <path class="fil13" d="M93192.9 37146.99c1194.63,967.94 5804.35,1349.88 9250.07,2975.25 -1709.21,-1685.49 -5888.19,-3411.79 -9250.07,-2975.25z"/>
   <path class="fil8" d="M119459.46 44312.8c624.88,796.14 -822.89,476.53 812.13,699.07 562.29,-1369.46 1809.59,-2752.16 2725.41,-4229.99 826.2,-1332.51 1825.03,-3220.14 2346.78,-4884.12 -1295.28,792.56 -650.81,676.74 -1652.95,2540.37 -1099.48,2044.82 -2653.71,3001.73 -3870.12,4991.67 -38.33,62.32 -101.48,174.83 -132.64,230.54 -28.41,51.29 -80.25,182 -101.21,223.09 -32.54,64.26 -92.93,306.66 -127.4,429.37z"/>
   <path class="fil30" d="M117386.51 44961.96l764.71 -226.41c-1798.01,-2441.36 -4880.54,810.21 -1400.35,1783.12 606.14,-1113 636.75,-449.78 87.14,-1625.65l548.5 68.94z"/>
   <path class="fil13" d="M108475.37 44587.74l624.06 -94.31c1445.02,459.15 2210.55,882.73 3332.65,103.41 -1722.17,-103.13 -2181.32,86.87 -3375.4,-1084.31l-1339.95 -475.98c-1720.51,-102.31 -639.5,-171.53 -1009.86,389.66 592.9,225.58 321.82,-24.27 1078.8,477.08 457.22,303.07 383.59,365.94 689.7,684.45z"/>
   <path class="fil14" d="M117386.51 27406.62c462.19,-1859.22 207.38,-182.56 -633.71,-914.72 -784.83,2606 621.3,936.51 -1275.7,5195.18 -1031.09,2314.24 -649.71,3118.38 -2689.56,5756.64l-1317.89 2066.88c-1239.58,1351.26 -1415.52,1280.66 -3493.15,849.36l-36.67 298.38 249.01 317.41c1658.19,233.85 1964.85,695.76 3582.77,713.96 668.46,-625.44 573.05,-478.45 1158.78,-1204.55l-576.91 113.62c578.84,-706.24 1536.03,-1867.77 2164.78,-2614.28l343.6 -92.38 1129.55 -3096.59c727.19,628.47 152.22,-191.38 452.25,996.07l1715 -4819.31 1885.15 -5747.82 -928.51 -142.84 -2416.83 6005.93 688.04 -3680.94z"/>
   <path class="fil31" d="M115217.6 28786.28c-546.57,779.87 -1397.86,3042.27 -1957.67,4140.65 -792,1554.5 -1638.33,2401.66 -2004.83,3931.06l214.55 2652.61 1317.89 -2066.88c2039.85,-2638.26 1658.47,-3442.4 2689.56,-5756.64 1897,-4258.67 490.87,-2589.18 1275.7,-5195.18 841.09,732.16 1095.9,-944.5 633.71,914.72 885.77,-755.33 2604.9,-5509 2620.07,-6609.87 -2339.89,164.91 -3060.47,5463.78 -4788.98,7989.53z"/>
   <path class="fil10" d="M118158.66 30972.29l-1715 4819.31c-930.44,754.5 -1322.85,1860.33 -1581.8,2100.52l-343.6 92.38c-212.07,1514.79 -463.02,1897.83 -1587.87,2500.66 -585.73,726.1 -490.32,579.11 -1158.78,1204.55 -1617.92,-18.2 -1924.58,-480.11 -3582.77,-713.96 278.81,261.98 286.8,338.92 711.21,632.89 1264.67,875.56 3070.39,1310.72 4302.52,488.66 2436.4,-1625.37 6402.77,-10071.3 6968.64,-12721.15l-122.99 -862.05c-1030.82,849.09 -424.13,373.39 -974.56,1446.95 -1024.2,1996.56 -87.42,531.13 -915,1011.24z"/>
   <path class="fil0" d="M130477.74 25885.49c642.81,-1673.08 750.09,-925.2 463.56,-2957.61l-752.56 1219.45c-526.17,1378.28 -130.17,1224.4 -1097.83,1731.54 -319.89,552.91 831.43,698.24 -1215.86,758.63 -801.38,23.45 -2013.38,-1044.33 -1963.19,-2042.88 55.43,-1106.93 627.09,-1088.45 835.85,-1264.94l1386.83 -653.85c-901.48,1074.12 -1144.71,1150.78 -675.07,2665.29 2629.16,93.76 2420.68,-1415.24 1900.58,-3445.71 -1934.78,-886.32 -3206.07,-433.23 -3726.44,1600.83 -590.97,2310.38 -26.75,3685.91 1458.53,4545.75 1727.13,-11.58 2904.11,-862.6 3385.6,-2156.5z"/>
   <path class="fil8" d="M130034.86 22990.48l153.88 1156.85 752.56 -1219.45c286.53,2032.41 179.25,1284.53 -463.56,2957.61 3360.5,-2859.71 4267.22,-11965.55 336.99,-14506.47 847.71,2397.52 1483.35,2460.4 1515.89,5540.17 28.68,2740.57 -273.29,3370.43 -720.86,5842.96 -586.83,-1503.21 -1283.97,-3247.72 -3228.68,-2734.51 954.98,419.44 3183.46,1437.02 1653.78,2962.84z"/>
   <path class="fil10" d="M117488.82 15018.05c531.41,-31.72 604.21,-97.9 1161.26,-3.31 826.2,140.09 437.92,-34.2 741.26,421.65l1459.36 1061.98 123.82 2368.84c-1075.77,1258.88 -1259.98,1169.25 -2766.5,1786.97l-2990.42 8132.1c1728.51,-2525.75 2449.09,-7824.62 4788.98,-7989.53 -15.17,1100.87 -1734.3,5854.54 -2620.07,6609.87l-688.04 3680.94 2416.83 -6005.93c1423.78,-2869.92 3386.7,-6936.93 1917.68,-9402.57 -748.7,-1256.12 -1457.7,-1047.09 -2749.95,-1368.63l-794.21 707.62z"/>
   <path class="fil21" d="M120043.81 25224.47l-1885.15 5747.82c827.58,-480.11 -109.2,985.32 915,-1011.24 550.43,-1073.56 -56.26,-597.86 974.56,-1446.95l1917.41 -5908.59c-1672.53,912.51 -980.91,1444.47 -1921.82,2618.96z"/>
   <path class="fil7" d="M107939.83 40658.33l36.67 -298.38c-300.86,-448.95 -945.05,-1192.14 -1058.39,-1747.26 -217.03,-1064.18 607.51,-2744.71 2572.63,-1398.41 -1293.35,731.33 -1227.44,-578.56 -1551.19,764.15 52.67,39.98 130.16,47.43 155.53,122.99l1831.1 406.48c17.37,-126.3 109.2,-812.69 131.54,-911.69l284.32 -1008.2c-3314.18,-2188.22 -5914.39,1906.93 -2402.21,4070.32z"/>
   <path class="fil19" d="M119535.02 18010.12l-432.13 -1663.15 -819.86 1489.7c-1049.29,-638.68 -1169.8,-442.06 -1137.54,-2210l2245.85 -190.28c-303.34,-455.85 84.94,-281.56 -741.26,-421.65 -557.05,-94.59 -629.85,-28.41 -1161.26,3.31l-1140.57 699.07c34.74,1962.08 151.39,2315.62 1551.74,2901.07 872.8,-125.75 1004.9,-263.08 1635.03,-608.07z"/>
   <path class="fil21" d="M126747.71 23329.68c-447.85,1745.88 -103.69,1813.44 777.66,2693.97l1565.54 -144.78c967.66,-507.14 571.66,-353.26 1097.83,-1731.54l-153.88 -1156.85 -171.25 -648.33c0,-772.97 204.34,-671.49 -503.56,-446.74 520.1,2030.47 728.58,3539.47 -1900.58,3445.71 -469.64,-1514.51 -226.41,-1591.17 675.07,-2665.29l-1386.83 653.85z"/>
   <path class="fil32" d="M119102.89 16346.97l681.97 -41.36c-43.57,-73.63 -392.14,-866.47 -393.52,-869.22l-2245.85 190.28c-32.26,1767.94 88.25,1571.32 1137.54,2210l819.86 -1489.7z"/>
   <path class="fil3" d="M119535.02 18010.12c-52.68,116.1 -247.37,549.88 -284.04,646.13l-408.42 1143.88c1584.01,-786.21 2527.96,-2324.72 942.3,-3494.52l-681.97 41.36 432.13 1663.15z"/>
   <path class="fil8" d="M115934.6 43039.86c320.99,-429.37 -1336.1,-576.9 1175.32,-732.71 959.94,-59.57 1266.05,731.33 2703.07,1488.59 -803.86,-2976.08 -2550.57,-2443.3 -4624.07,-1149.68l745.68 393.8z"/>
   <path class="fil8" d="M129090.91 25878.87l-1565.54 144.78c-881.35,-880.53 -1225.51,-948.09 -777.66,-2693.97 -208.76,176.49 -780.42,158.01 -835.85,1264.94 -50.19,998.55 1161.81,2066.33 1963.19,2042.88 2047.29,-60.39 895.97,-205.72 1215.86,-758.63z"/>
   <path class="fil3" d="M112930.39 40485.15c1124.85,-602.83 1375.8,-985.87 1587.87,-2500.66 -628.75,746.51 -1585.94,1908.04 -2164.78,2614.28l576.91 -113.62z"/>
   <path class="fil3" d="M110657.79 38992.7l474.32 -1035.78 -790.07 -1368.91c-23.72,1576.56 417.23,987.52 -552.37,2008.14 766.09,1181.11 -427.71,302.24 868.12,396.55z"/>
   <path class="fil19" d="M114861.86 37892.11c258.95,-240.19 651.36,-1346.02 1581.8,-2100.52 -300.03,-1187.45 274.94,-367.6 -452.25,-996.07l-1129.55 3096.59z"/>
   <path class="fil33" d="M123774.94 41661.3c-0.83,-115.55 -88.25,-143.68 -129.89,-217.03 -1235.44,1604.14 -69.77,1070.53 0,1173.94 182.56,-384.97 137.33,413.1 210.41,-732.99 2.48,-39.16 -79.69,-115.27 -80.52,-223.92z"/>
   <path class="fil34" d="M130145.99 15344.56l-712.03 -12.14 487.83 827.3 224.2 -815.16z"/>
   <path class="fil8" d="M121103.86 35093.9c1017.58,-1504.03 2162.84,-1375.8 3159.19,-5765.19 -1264.12,943.67 -955.26,999.66 -2019.17,3056.05 -509.9,985.59 -958.57,1609.1 -1140.02,2709.14z"/>
   <path class="fil8" d="M121092.55 40258.47c1823.1,-997.73 4237.16,-7002.01 4943.13,-9625.38 -900.11,500.79 -327.89,-236.33 -1092.04,999.1l-3851.09 8626.28z"/>
   <path class="fil8" d="M114922.26 41808.56c1260.53,-1365.6 2461.77,-2301 3302.31,-3906.25 717.55,-1370.01 1550.64,-3138.5 2232.61,-4664.6 1440.89,-3224.82 2746.92,-6589.74 3828.2,-10054.75 -1690.73,1246.47 -5555.88,11797.32 -6730.37,14065.23 -916.65,1769.88 -1902.52,3005.87 -2632.75,4560.37z"/>
   <path class="fil34" d="M107716.73 43036.55l1339.95 475.98c769.39,226.68 741.27,380.28 1593.66,360.98 2049.51,-46.61 899.01,-127.13 1313.48,-541.89 -1628.95,-218.68 -3031.78,-421.09 -4188.35,-1349.6 -1271.01,-1020.62 -766.36,-3592.7 -10887.57,-5384.08 1504.31,1485.28 4292.59,1606.06 6204.21,2395.31 142.57,58.74 4047.72,3063.5 4624.62,4043.3z"/>
   <path class="fil4" d="M107939.55 37978.43c-176.49,786.49 -352.15,1241.5 793.11,1669.77 1310.44,490.31 1499.62,97.62 1925.13,-655.5 -1295.83,-94.31 -102.03,784.56 -868.12,-396.55 969.6,-1020.62 528.65,-431.58 552.37,-2008.14l-284.32 1008.2c-22.34,99 -114.17,785.39 -131.54,911.69l-1831.1 -406.48c-25.37,-75.56 -102.86,-83.01 -155.53,-122.99z"/>
  </g>
 </g>
</svg>
