<svg xmlns="http://www.w3.org/2000/svg" xmlns:xlink="http://www.w3.org/1999/xlink" viewBox="0 0 142.89 122.48"><defs><style>.cls-1{isolation:isolate;}.cls-2{fill:#b0000f;}.cls-3{fill:#e88d3b;}.cls-4{fill:#e8a33b;}.cls-5{fill:#db8300;}.cls-5,.cls-8{opacity:0.55;}.cls-18,.cls-20,.cls-21,.cls-5,.cls-8{mix-blend-mode:multiply;}.cls-6{fill:#f6be51;}.cls-7{fill:url(#linear-gradient);}.cls-8{fill:#e4a23f;}.cls-9{fill:url(#linear-gradient-2);}.cls-10{fill:#f5b538;}.cls-11{fill:url(#linear-gradient-3);}.cls-12{fill:#e27e1b;}.cls-13{fill:url(#linear-gradient-4);}.cls-14{fill:url(#linear-gradient-5);}.cls-15{fill:url(#linear-gradient-6);}.cls-16{fill:url(#linear-gradient-7);}.cls-17{fill:url(#linear-gradient-8);}.cls-18{fill:#c25900;opacity:0.32;}.cls-19{fill:#ec2734;}.cls-20{fill:#d22734;}.cls-20,.cls-21,.cls-22{opacity:0.75;}.cls-21{fill:#d42734;}.cls-22{fill:#f6985c;mix-blend-mode:screen;}</style><linearGradient id="linear-gradient" x1="76.1" y1="17.09" x2="80.09" y2="84.69" gradientUnits="userSpaceOnUse"><stop offset="0" stop-color="#ffb133"/><stop offset="1" stop-color="#ed7d1b"/></linearGradient><linearGradient id="linear-gradient-2" x1="52.09" y1="17.54" x2="56.33" y2="89.41" xlink:href="#linear-gradient"/><linearGradient id="linear-gradient-3" x1="96.77" y1="50.72" x2="109.56" y2="33.95" xlink:href="#linear-gradient"/><linearGradient id="linear-gradient-4" x1="51.48" y1="49.99" x2="80.22" y2="49.99" xlink:href="#linear-gradient"/><linearGradient id="linear-gradient-5" x1="59.86" y1="31.53" x2="62.76" y2="80.67" xlink:href="#linear-gradient"/><linearGradient id="linear-gradient-6" x1="81.32" y1="29.7" x2="84.22" y2="78.84" xlink:href="#linear-gradient"/><linearGradient id="linear-gradient-7" x1="72.81" y1="58.33" x2="74.17" y2="76.56" xlink:href="#linear-gradient"/><linearGradient id="linear-gradient-8" x1="42.89" y1="36.67" x2="45.79" y2="85.8" xlink:href="#linear-gradient"/></defs><g class="cls-1"><g id="Layer_2" data-name="Layer 2"><path class="cls-2" d="M113.76,56S89,52.9,76.41,52.26,30.35,56,30.35,56l8.25,6.26S72,77.11,81.4,75.38,113.76,56,113.76,56Z"/><polygon class="cls-3" points="87.21 78.51 76.77 0.68 67.53 2.76 79.97 81.14 87.21 78.51"/><polygon class="cls-3" points="29.13 37.71 43.37 63.86 48.3 61.65 35.79 32.82 29.13 37.71"/><polygon class="cls-4" points="33.75 27.38 57.96 50.09 59.86 39.48 39.33 19.76 33.75 27.38"/><path class="cls-5" d="M45.05,25.26c-.61,3.66-2.16,7.27-6.06,6.83l-.26,0L58,50.09l1.9-10.61Z"/><polygon class="cls-4" points="67.25 39.66 62.36 15.73 72.78 16.09 74.07 40.12 67.25 39.66"/><polygon class="cls-6" points="93.09 69.8 88.2 23.98 81.31 25.97 85.2 71.67 93.09 69.8"/><polygon class="cls-3" points="72.73 68.67 101.43 18.63 111.68 25.16 78.92 77.97 72.73 68.67"/><path class="cls-5" d="M93.91,45.14a15.59,15.59,0,0,1-4.39-5.74L72.73,68.67,78.92,78,98,47.17A10.61,10.61,0,0,1,93.91,45.14Z"/><polygon class="cls-7" points="81.92 11.46 62.04 76.31 72.73 77.97 93.58 15.73 81.92 11.46"/><path class="cls-5" d="M77.31,43.13a35.94,35.94,0,0,1-3.61-4.87L62,76.32,72.73,78,83.34,46.29A8.63,8.63,0,0,1,77.31,43.13Z"/><polygon class="cls-3" points="101.43 63.86 113.76 44.19 105.62 39.03 95.45 62.24 101.43 63.86"/><polygon class="cls-6" points="64.26 47.01 53.2 14.28 62.36 11.46 70.88 44.47 64.26 47.01"/><path class="cls-5" d="M64.44,28.43a8.38,8.38,0,0,1-6.37.24L64.26,47l6.62-2.53L66.46,27.34A20,20,0,0,1,64.44,28.43Z"/><polygon class="cls-6" points="87.2 20.53 98.26 19.35 99.44 57.02 93.32 57.61 87.2 20.53"/><path class="cls-8" d="M94.32,40.11c-1.27-.13-3-1.94-4.3-2.46l3.3,20L99.44,57l-.61-19.5C97.41,38.52,96.19,40.31,94.32,40.11Z"/><polygon class="cls-9" points="49.03 72.87 46.81 23.25 58.91 25.88 57.55 77.97 49.03 72.87"/><path class="cls-5" d="M55.54,51.61c-2.62-.27-4.44-2.37-6.23-4.14-.51-.51-1-1-1.49-1.55l1.21,27L57.55,78l.71-27.15A4.3,4.3,0,0,1,55.54,51.61Z"/><path class="cls-10" d="M93.32,68.49l15-29.46s.55-3.81-.72-4.72-7.35-1.36-8.43,0-12,36.88-12,36.88Z"/><path class="cls-11" d="M107.1,39c-1.5,0-3,.15-4.48.16-2.87,0-3.52-2.36-3.53-4.7C97.66,37,87.2,71.19,87.2,71.19l6.12-2.7,15-29.45Z"/><path class="cls-12" d="M94.89,53.81c1.66-5.35,4.27-9.92,6.54-14.84-1.85-.57-2.33-2.55-2.34-4.52C97.66,37,87.2,71.19,87.2,71.19l2-.9C90.23,64.56,93.17,59.39,94.89,53.81Z"/><polygon class="cls-6" points="51.48 71.67 69.97 22.19 80.22 26.09 61.18 75.05 51.48 71.67"/><path class="cls-13" d="M75.8,27.79A11,11,0,0,1,69,24.92L51.48,71.67l9.7,3.38L80.05,26.52A6.88,6.88,0,0,1,75.8,27.79Z"/><path class="cls-5" d="M66.81,44.7a19.64,19.64,0,0,1-3.21-5.45L51.48,71.67l9.7,3.38L72,47.15A6.17,6.17,0,0,1,66.81,44.7Z"/><path class="cls-12" d="M64.1,47.87c1.64-4.72,3-9.58,4.68-14.27.91-2.47,2.1-4.54,3-6.83A12.31,12.31,0,0,1,69,24.92L51.48,71.67l6.85,2.39C58.8,65,61.13,56.43,64.1,47.87Z"/><path class="cls-6" d="M62.36,72.12l-10.88-35s6-4.89,8-4.3,3.25.86,3.88,3.31,7.53,38.71,7.53,38.71Z"/><path class="cls-14" d="M63.56,37.06A7.14,7.14,0,0,1,61.63,39c-1.56,1-3.89,2.74-5.89,1.9a14.15,14.15,0,0,1-2.55-1.28,7.49,7.49,0,0,1-1.4-1.47l10.57,34,8.52,2.72S64.88,43.27,63.56,37.06Z"/><path class="cls-12" d="M62.92,65c-2.1-8-4.42-15.76-5.7-23.93a3,3,0,0,1-1.48-.2,14.15,14.15,0,0,1-2.55-1.28,7.49,7.49,0,0,1-1.4-1.47l10.57,34,2.35.75C63.83,70,63.42,66.91,62.92,65Z"/><path class="cls-6" d="M80.22,72.48,76.5,34.92s6-4.51,7.89-3.51S87,34,86.65,35.4,87.2,72,87.2,72,82.67,77.65,80.22,72.48Z"/><path class="cls-15" d="M86.65,35.4a2.25,2.25,0,0,0,.06-.36l-.14.15c-1.66,1.47-4,3.41-6.23,3.67-1.72.2-3-1.11-3.71-2.58l3.59,36.2c2.45,5.17,7-.45,7-.45S86.29,36.85,86.65,35.4Z"/><path class="cls-12" d="M82.91,61.59c-.1-1.55-.23-3.1-.4-4.63-.45-4-1-8-1.63-12-.3-1.84-.42-4.11-.87-6.13a4,4,0,0,1-3.38-2.59l3.59,36.2c.94,2,2.19,2.38,3.37,2.11Q83.11,68.1,82.91,61.59Z"/><path class="cls-6" d="M69.34,73.84S67.8,53.31,68.2,52.34s6.76-2.62,7.85-.9,1.36,5.54,1.27,6.17,0,18.68,0,18.68S70.52,76.74,69.34,73.84Z"/><path class="cls-16" d="M77.32,57.61a8.32,8.32,0,0,0,0-1.33,4.33,4.33,0,0,1-2,1c-1.76.36-4.27.57-5.66-.86a6.22,6.22,0,0,1-1.48-3.62C68,56,69.34,73.84,69.34,73.84c1.18,2.9,8,2.45,8,2.45S77.23,58.25,77.32,57.61Z"/><path class="cls-12" d="M70.68,68.58a70.42,70.42,0,0,1,.82-11.2,3.68,3.68,0,0,1-1.88-1,6.22,6.22,0,0,1-1.48-3.62C68,56,69.34,73.84,69.34,73.84a2.72,2.72,0,0,0,1,1.21C70.4,72.87,70.69,70.62,70.68,68.58Z"/><path class="cls-6" d="M46.31,64.78S33.43,39.93,33.75,39.07s7.14-5.21,8.76-4.67,3.3,1.54,3.8,3.18,7.61,29.19,7.61,29.19S47.76,65.77,46.31,64.78Z"/><path class="cls-17" d="M46.31,37.58a1,1,0,0,0,0-.1,28.86,28.86,0,0,0-4.5,2.86,5,5,0,0,1-3.26,1.72c-1.49,0-2.31-1-3.44-1.79-.44-.31-.88-.61-1.28-1C34.5,42,46.31,64.78,46.31,64.78c1.45,1,7.62,2,7.62,2S46.81,39.21,46.31,37.58Z"/><path class="cls-12" d="M38.51,42.06c-1.49,0-2.31-1-3.44-1.79-.44-.31-.88-.61-1.28-1C34.5,42,46.31,64.78,46.31,64.78c1.45,1,4,3.17,4,3.17S39.83,42.06,38.51,42.06Z"/><path class="cls-18" d="M100.89,53.89c-.13.07-.27.13-.4.21a10.2,10.2,0,0,1-2.94,4.54,7.77,7.77,0,0,1-6.67,1.43,1.58,1.58,0,0,1-.31-.09,25.43,25.43,0,0,1-3.38,1.17,1.85,1.85,0,0,1-.29,1,4.33,4.33,0,0,1-3.34,2.2,7.37,7.37,0,0,1-2.74-.48,2.27,2.27,0,0,1-1.5-1.47l-2,.11a2,2,0,0,1-1.24,3.08,12.3,12.3,0,0,1-7.23-.81,3.7,3.7,0,0,1-.59-.32,2.73,2.73,0,0,1-.61.32,7.15,7.15,0,0,1-8.53-2.63,2.58,2.58,0,0,1-.18-.38,15.26,15.26,0,0,1-5-1.89c-.9-.54-1.82-1.2-2.76-1.85-3.41.57-7.65,1.16-10.73.38l3,5.44,2-.9.82,1.58.12.24c.7.47,1.64,1.23,2.44,1.88L49,72.87,57.55,78l.11-4.15.67.24,2.85,1,1.16-3,0,.05.88.28L62,76.32,72.73,78l.63-1.88a19.74,19.74,0,0,0,4,.2v-.71L78.92,78l.44-.71L80,81.14l7.24-2.63-.76-5.68c.46-.45.75-.8.75-.8s0-.3,0-.83l5.91-1.4L93,68.65l.35-.16,3.06-6,5.05,1.37,5.84-9.31-.18,0A9.06,9.06,0,0,1,100.89,53.89Z"/><path class="cls-19" d="M30.35,56S46.13,97.14,46,117.63l7.25,4.17s31.23-2.54,50.52-1.63c0,0,3-45.51,10-64.19L99.44,57S97,69.35,74,69.53c-17,.14-23.26-10.6-23.26-10.6l-11.6,1.13Z"/><path class="cls-20" d="M48,90.41a182.48,182.48,0,0,0-8.81-30.35L30.35,56S46.13,97.14,46,117.63l7.25,4.17C53.12,117.39,49.1,96.16,48,90.41Z"/><path class="cls-21" d="M96.59,94.8c-5.45,2.69-13.81,1.9-19-1-7.24-4-12.3-10.6-17.29-17a69.61,69.61,0,0,1-9.91-16.2c-2.62.25-5.24.64-7.84,1.12,5.07,11.56,12.07,48.55,13.3,57.94,1.07,0,37.19-1.47,46.15-1.36.93-10.37,3.66-31,3.66-31A28.71,28.71,0,0,1,96.59,94.8Z"/><path class="cls-22" d="M87.2,81.48a2.79,2.79,0,0,0-1.26,2.21,1.91,1.91,0,0,0,1.55,1.52A4.45,4.45,0,0,0,89.77,85a5.19,5.19,0,0,0,2.37-1.4A2.41,2.41,0,0,0,92.61,81a2.48,2.48,0,0,0-2.73-1.08A6.15,6.15,0,0,0,87.2,81.48Z"/><path class="cls-22" d="M102.56,70.5A6.23,6.23,0,0,0,94,73.58a3.61,3.61,0,0,0,0,3.22,3.22,3.22,0,0,0,2.31,1.42A7.13,7.13,0,0,0,99.06,78a9.68,9.68,0,0,0,3.46-1.48,5.08,5.08,0,0,0,1.91-2.64A3.1,3.1,0,0,0,102.56,70.5Z"/></g></g></svg>