<?xml version="1.0" encoding="UTF-8"?>
<!DOCTYPE svg PUBLIC "-//W3C//DTD SVG 1.0//EN" "http://www.w3.org/TR/2001/REC-SVG-20010904/DTD/svg10.dtd">
<!-- Creator: CorelDRAW 2017 -->
<svg xmlns="http://www.w3.org/2000/svg" xml:space="preserve" width="750mm" height="731.79mm" version="1.0" style="shape-rendering:geometricPrecision; text-rendering:geometricPrecision; image-rendering:optimizeQuality; fill-rule:evenodd; clip-rule:evenodd"
viewBox="0 0 75000 73179.04"
 xmlns:xlink="http://www.w3.org/1999/xlink">
 <defs>
  <style type="text/css">
   <![CDATA[
    .fil4 {fill:#010000}
    .fil14 {fill:#050302}
    .fil17 {fill:#0A0A06}
    .fil6 {fill:#170A05}
    .fil31 {fill:#191307}
    .fil1 {fill:#1B0404}
    .fil23 {fill:#2663A6}
    .fil29 {fill:#35280D}
    .fil15 {fill:#3B96F8}
    .fil22 {fill:#451D27}
    .fil18 {fill:#52A3F6}
    .fil25 {fill:#69001A}
    .fil12 {fill:#75011C}
    .fil16 {fill:#790022}
    .fil5 {fill:#871313}
    .fil24 {fill:#A6B8D0}
    .fil26 {fill:#A9CEF0}
    .fil27 {fill:#ACA5A0}
    .fil13 {fill:#B66619}
    .fil8 {fill:#C7AB88}
    .fil10 {fill:#D3AF29}
    .fil9 {fill:#D3B591}
    .fil3 {fill:#D93635}
    .fil11 {fill:#EAD65D}
    .fil7 {fill:#EDD26D}
    .fil20 {fill:#F15651}
    .fil30 {fill:#F2D5AD}
    .fil2 {fill:#F79C44}
    .fil0 {fill:#F9E7CD}
    .fil28 {fill:#FBFAF8}
    .fil19 {fill:#FD6667}
    .fil21 {fill:#FEF39C}
   ]]>
  </style>
 </defs>
 <g id="图层_x0020_1">
  <metadata id="CorelCorpID_0Corel-Layer"/>
  <g id="_1295181472656">
   <path class="fil0" d="M61006.86 34808.88c1464.15,1746.89 11967.49,12238.23 5609.78,15762.24 -6785.56,3760.91 -28712.96,-12141.09 -33108.63,-15472.62 -2432.33,-1843.43 -4634.39,-3748.52 -6869.75,-5703.02 -3704.94,-3239.51 -4954.87,-4567.98 -7995.66,-8143.18 -577.15,-678.64 -849.67,-996.71 -1420.4,-1687.14 -2135.53,-2583.61 -7972.58,-10028.75 -2446.08,-12520.7 7227.56,-3259.04 28466.53,12298.1 33000.87,15753.55l10314.2 8772.54c781.15,794.11 770.01,868.75 1518.74,1552.27 819.78,748.39 701.47,856.12 1396.93,1686.06zm-50727.05 -32227.06l218.23 638.29c-4421.96,3523.89 -1682.99,11325.32 823.69,15390.72 -1462.35,-4567.38 -2240.38,-7853.8 -611.47,-12609.39 585.88,3633.53 -1192.23,4410.74 1814.14,11176.17 781.24,1757.96 1337.13,2677.65 2303.39,4414.9 810.65,1457.27 1344.55,2845.02 2118.37,3948.03 -1331.1,-1188 -3000.55,-2982.27 -4187.37,-4367.28l1214.41 2765.5c1190.53,2278.28 5006.64,5892.05 6182.12,7274.08l3523.22 3376.77c4636.49,4387.28 13309.34,10667.87 18760.79,13854.29 5258.19,3073.46 11897.96,6351.42 18317.48,7722.75 12237.71,2614.2 15858.06,-3671.15 8763.86,-15914.86 -2603.71,-4493.58 -8548.53,-11216.99 -12376.38,-14702.92 -10944.34,-9967.21 -33157.7,-26276.08 -46864.48,-22967.05z"/>
   <path class="fil0" d="M50738.71 31691.5c675.89,502.7 665.55,428.89 1157.92,1399.77 675.19,1331.57 538.52,898.27 -216.13,1657.26 -68.63,-85.47 -184.22,-318.43 -210.31,-251.41 -227.27,583.17 -727.06,-2769.55 -731.48,-2805.62zm-3295.95 -2043.77c779.34,839.22 2403.83,2623.13 1805.31,4331.93 -895.23,-533.65 -696.56,-196.3 -1210.5,-1816.89 -322.19,-1016.35 -442.9,-1556.43 -594.81,-2515.04zm-4011.68 -2721.58c1542.52,965.04 2771.68,3639.36 2528.06,5889.19 -1230.87,-2020.8 -1452.01,-3905.06 -2528.06,-5889.19zm-6178.9 2988.94c-4104.79,-1063.37 -5851.4,-2819.91 -8408.86,-5221.39 -1380.17,-1295.97 -3628.58,-4235.39 -4126.86,-6502 -347.58,-1581.07 -41.95,-1685.47 803.62,-2124.6 -478.62,766.85 -593.11,-358.43 -373.37,1584.28 125.03,1105.87 1136.25,2352.44 1708.38,3078.81 3315.92,4210.28 6714.93,5526.13 10397.09,9184.9zm-3362.58 4299.43c2991.72,1873.55 14546.42,10777.39 17726.68,11125.22l85.79 -78.45c-2106.63,-1403.7 -3609.21,-2902.04 -5273.24,-4357.64 3969.83,923.86 10093.75,6447.12 14701.04,5250.43 789.88,-1461.08 759.57,-3119.64 876.87,-4908.08 1460.24,2781.34 1687.91,6174.17 -577.95,6934.12 -1526.07,511.86 -2096.6,-577.82 -2569.3,625.07 9308.7,3147.85 11319.81,-809.35 5886.32,-7912.61 -5381.71,-7035.53 -8918.18,-10175.29 -15504.67,-15638.33 -5557.2,-4609.52 -17520.88,-13142.92 -25165.25,-15569.99 300.92,357.82 683.71,696.01 947.81,1532.38 -1930.64,-1144.32 -4597.26,-1732.61 -6794.5,-1206.58 -3231.53,11905.28 20581.05,23595.58 25984.53,27847.63 -1655.3,-381.4 -3775.67,-1267.76 -5385.72,-1916.28l-3813 -1886.88c-2117.47,-866.36 -435.18,-459.84 -1125.41,159.99z"/>
   <path class="fil1" d="M4157.59 11608.16l387.71 -769.83c1436.76,16277.69 41895.17,50404.83 63820.36,48076.8l991.45 -376.17c-1272.6,7212.79 -10164.29,5277.7 -14734.25,4043.03 -3533.06,-954.57 -7799.5,-2858.95 -11094.45,-4515.01l-2667.82 -1420.01c-962.56,-684 -424.34,-311.41 -835.93,-890.17 -4246.47,-789.7 -15111.44,-9795.32 -19365.03,-13835.49 -3101.6,-2945.97 -5578.58,-5293.17 -8379.76,-8506.97 -1709.08,-1960.8 -6470.19,-7604.65 -7073.33,-10397.65 -1280.94,-964.57 -1931.94,-3308.32 -2366.81,-5240.2 -253.06,-1124.44 -368.45,-2418.15 -191.15,-3650.43 251.55,-1748.44 660.14,-1936.52 1509.01,-2517.9zm6122.22 -9026.34c13706.78,-3309.03 35920.14,12999.84 46864.48,22967.05 3827.85,3485.93 9772.67,10209.34 12376.38,14702.92 7094.2,12243.71 3473.85,18529.06 -8763.86,15914.86 -6419.52,-1371.33 -13059.29,-4649.29 -18317.48,-7722.75 -5451.45,-3186.42 -14124.3,-9467.01 -18760.79,-13854.29l-3523.22 -3376.77c-1175.48,-1382.03 -4991.59,-4995.8 -6182.12,-7274.08 -1058.88,-789.46 -1134.34,-826.25 -1873.74,-2064.25 -2193.12,-3671.62 -11416.33,-16103.29 -1819.65,-19292.69zm-3999.84 1042.3c-77.56,92.02 -182.72,205.11 -237.5,269.98 -50.88,60.24 -158.34,181.42 -217.34,253.91l-1088.98 1980.92 -582.37 1894.62c-43.85,83.45 -104.86,122.13 -126.53,254.15l-629.53 902.55c-243.53,277.83 -570.33,589 -961.96,954.68 -837.33,781.73 -1533.59,1145.75 -2435.74,1607.5l0 2299.23c1333.71,-327.12 346.37,-209.75 705.19,345.57l578.15 6733.29 2508.29 4720.12c1032.79,1877.47 1605.13,2857.75 2921.29,4508.1 4363.16,5470.89 1071.42,2076.99 6774.82,7944.99 770.01,792.32 757.86,1072.89 1635.23,1826.53 796.8,684.35 976.31,935.76 1748.62,1702.25 7263.28,7207.54 20955.81,16559.21 29569.86,20361.41 4633.18,2044.97 11440.21,4675 16579.2,4012.43 2256.94,-290.93 3426.5,-1236.69 5122.03,-1717.01l-1504.79 5473.51c-33.31,64.4 -284.56,758.52 -340.25,825.77 -778.73,940.17 254.16,293.79 -1164.34,839.7 94.72,105.83 242.82,95.47 282.86,319.26 36.82,206.3 194.86,235.34 238.91,319.26 236.6,450.92 190.04,232.48 356.5,922.19l938.08 0 1668.04 -4308.59 1342.75 -4792.38 341.05 -822.08 -85.29 -1261.57 867.04 -2101.38c309.14,-1984.85 -62.82,-1703.8 915.39,-2687.65 1313.55,-1982.71 3094.57,-3768.76 2997.55,-7511.21 -90.41,-3487 -1340.04,-6294.52 -2495.05,-8775.16l-42.44 -1107.78 47.86 -43.33c-1440.47,-391.28 -1725.34,-1465 -2055.05,-2700.03 -618.19,-315.21 -355.3,86.19 -854.29,-666.73 -408.59,-616.38 -334.84,-767.09 -523.17,-1243.96l-487.85 -842.79c-1248.93,-567.34 -1185.52,-711.49 -1736.48,-1791.88 -1038.92,-748.4 -1670.35,-1768.68 -2621.47,-2793.84 -530.3,-571.5 -641.87,-864.34 -1207.29,-1489.88 -676.28,-748.28 -929.34,-706.74 -1487.73,-1461.44l-1006.81 -1059.09 -415 -311.28c-1148.59,-876.01 -2189.81,-1994.13 -3229.73,-2911.21 -1178.79,-1039.44 -2400.72,-1839.74 -3458.2,-2989.77 -261.89,-176.89 -411.7,-29.16 -898.14,-663.99 -456.75,-596.15 -233.09,-203.92 -442.9,-1095.75l-278.94 -459.25 -867.14 444.96c-515.34,-699.47 -759.97,-779.94 -1027.58,-1272.16 -1938.15,-874.82 -4879.51,-3311.06 -6919.71,-4780.59 -1080.06,-778.03 -2192.22,-1418.1 -3434.02,-2223.76l-3340.3 -2110.55c-699.27,-270.57 -1342.95,-499.13 -1967.86,-802.44l-1836.02 -1285.38 -90.6 17.03 -1993.15 -1049.33c-4038.56,-1453.58 -7423.92,-3094.64 -12089.61,-3873.15 -4372.49,-729.59 -10374.1,-622.22 -11957.56,3272.48z"/>
   <path class="fil2" d="M8455.43 24090.53c1835.01,3132.86 5911.1,6870.31 6840.85,8373.77 -4103.69,-1328.95 -8449.29,-6463.91 -8639.74,-12432.39l1798.89 4058.62zm-3248.89 -1073.84c603.14,2793 5364.25,8436.85 7073.33,10397.65 2801.18,3213.8 5278.16,5561 8379.76,8506.97 4253.59,4040.17 15118.56,13045.79 19365.03,13835.49l328.61 -751.73c1471.68,1008.73 3680.25,1877.83 5352.01,2581.47 1902.94,800.77 3849.22,1754.27 5485.76,2447.67 -1523.25,-196.06 -852.38,305.69 -1056.47,480.32 1441.88,482.46 2794.35,1245.5 4363.16,1455.12 1272.91,170.11 3850.83,52.86 5317.9,105.83 4886.93,176.65 5645.7,-636.98 8550.03,-3160.35 -21925.19,2328.03 -62383.6,-31799.11 -63820.36,-48076.8l-387.71 769.83c-1328.1,4021.47 46.15,7660.12 1048.95,11408.53z"/>
   <path class="fil3" d="M26857.5 53021.89c-2945.77,1623.44 -5551.89,-362 -6817.07,-2711.7 2831.69,2001.39 4283.5,1377.04 6817.07,2711.7zm-24209.62 -25171.29c1315.05,1807.96 2170.54,3698.05 2816.03,6539.14 2686.49,726.85 2650.27,545.2 4534.04,2663.37l-552.47 861.6c785.86,362.59 1071.53,651.26 1742.9,1104.68l-680.8 -1538.93c2250.31,1129.08 1161.33,1526.79 2624.28,2984.65 1263.77,1259.31 1608.44,582.81 1655.5,3267.73l-1225.75 -2001.4c-38.23,-192.13 -159.24,-195.22 -194.26,-287.59l-266.8 2562.06 245.63 993.85c1166.85,23.69 2167.34,145.83 3045.91,750.07 1411.37,970.75 383.19,1069.68 2078.23,1844.85 -953.73,555.44 -706.89,92.02 -1357.29,387.83 748.03,1176.82 754.45,847.08 1350.67,2034.25 1574.02,3134.05 344.46,2590.16 4685.85,4142.66 916,327.47 3115.75,962.19 3949.27,1132.77 -437.38,566.15 -259.18,721.73 -1520.15,1265.02 -1640.25,706.73 -1541.61,-128.44 -1086.97,689 5423.25,2398.15 4233.92,1662.73 10275.27,1618.92 -1273.41,1490.01 -1566.3,865.17 -2753.42,1816.29l2842.92 -365.21c-543.34,278.55 -2547.92,2082.7 -3232.34,2719.2l1967.76 1531.78c-601.54,-2576.7 -325.3,-644.71 389.82,-1272.16 3394.69,914.57 5094.14,8.93 8386.68,-547.22l-458.85 797.91c-38.33,54.17 -591.81,765.78 -608.66,782.8 -367.85,371.04 -1087.68,754.35 -1410.98,947.91l2890.88 -325.46c-814.35,801.97 -1011.12,1494.41 -1905.34,2179.72 8135.53,3009.89 5538.64,-1046.83 12650.6,1752.13 2561.67,1008.25 3490.01,-482.94 6316.18,-618.65 3108.52,-149.15 4122.45,859.7 6795.69,1688.68l1504.79 -5473.51c-1695.53,480.32 -2865.09,1426.08 -5122.03,1717.01 -5138.99,662.57 -11946.02,-1967.46 -16579.2,-4012.43 -8614.05,-3802.2 -22306.58,-13153.87 -29569.86,-20361.41 -772.31,-766.49 -951.82,-1017.9 -1748.62,-1702.25 -877.37,-753.64 -865.22,-1034.21 -1635.23,-1826.53 -5703.4,-5868 -2411.66,-2474.1 -6774.82,-7944.99 -1316.16,-1650.35 -1888.5,-2630.63 -2921.29,-4508.1l-2508.29 -4720.12 -396.24 3345.34c1040.02,1426.92 1726.14,2122.7 2808.1,2860.5 -533.8,637.33 850.18,515.91 -1047.34,524.24z"/>
   <path class="fil4" d="M18994.49 56516.62c2029.77,347.47 3161.7,1976.28 4040.48,3588.18l1085.27 3622.7c623.11,1523.45 593.01,2502.3 537.72,4523.82 317.97,513.17 322.29,-231.06 356.1,1419.29 -2407.14,577.22 -5198.29,740.9 -7183.4,-333.54l299.71 -1972.95c188.04,-744.46 149.31,-504.36 378.78,-889.57l1340.94 -656.14c-228.07,-2882.88 -357.11,-2561.71 -1155.31,-4747.5 -554.98,-1519.76 -448.92,-3421.52 -604.75,-5112.1l904.46 557.81zm-7356.49 -6252.26l51.98 -3591.99c227.27,145.23 985.43,437.23 1008.31,450.8 948.31,557.46 655.32,101.66 807.83,1066.71 1036.21,807.2 449.22,-11.07 1016.54,1356.44 57.7,85.47 150.41,102.97 173.19,256.17l952.32 2558.85 858.91 4000.77c-1302.31,-852.2 -1344.75,-1476.2 -2309.32,-2552.66 -1152.5,-1286.21 -1115.77,-1122.54 -2488.62,-2096.63l-71.14 -1448.46zm-8660.61 -4225.39c350.19,-2673.01 1103.04,-5633.14 1117.08,-8833.13l1267.19 677.09 657.73 535.79c3669.82,1927 3924.98,6380.82 3921.37,12190.85l-2863.79 -795.41 829.6 -1528.81c-1549.54,-956.84 -3927.28,-27.98 -5945.61,-199.51 396.64,-1430.37 137.56,-1237.53 1016.43,-2046.87zm-2977.37 -17140.23c1978.09,1807.24 2514.41,5121.75 2517.12,7892.72 -64.12,1904.74 -84.69,4269.56 -438.79,6063.23 -459.55,2327.92 -716.42,3593.77 -2078.33,4204.44l0 1952.11 2393.9 964.33 -2393.9 1322.88 0 1506.43c3067.68,-1080.75 4423.97,-2351.96 8314.94,-1247.4 5036.34,1429.77 8483.4,6346.89 8874.13,12374.52 305.13,4708.1 -1156.42,6334.4 -2280.32,9247.03l1350.07 0c288.47,-564.95 662.64,-1274.66 1085.97,-1928.66l4000.94 1018.38 190.45 910.28 1480.4 0 -716.22 -958.38 2282.32 -305.09 2408.86 -672.81 -878.78 -7710.48c3699.22,821.49 5398.97,2784.08 6885.7,6207.38l1503.19 3439.38 1538.2 0 -1057.17 -3430.45 -121.52 -530.31c1520.05,-167.49 3139.93,-206.65 4400.4,641.38l2140.64 983.49c1165.54,908.98 1308.53,921.12 1854.88,2335.89l1946.28 0c-234.59,-852.07 -530.69,-1001.94 -248.44,-1907.35 2475.08,-579.6 6573.34,-598.53 8290.76,1907.35l3177.65 0c317.17,-375.68 56.49,-590.31 1498.77,-998.85 1771.29,-501.86 4788.4,-457.58 6050.67,998.85l2038.8 0c-166.46,-689.71 -119.9,-471.27 -356.5,-922.19 -44.05,-83.92 -202.09,-112.96 -238.91,-319.26 -40.04,-223.79 -188.14,-213.43 -282.86,-319.26 -2051.24,-2881.92 -7113.17,-1044.32 -9913.14,771.01 -4945.44,-3524.01 -4695.39,-3223.56 -11327.23,-1665.35 -2987.21,-2450.4 -4790.61,-3830.06 -9557.34,-2614.91 -2614.15,-2990.73 -3029.96,-5130.21 -8495.35,-5440.18 -2049.64,-5497.08 -2780.01,-6488.91 -7996.76,-8095.34 -358.01,-2232.56 -1129.22,-4015.76 -2025.66,-5615.16 -630.73,-1125.27 -845.56,-1381.09 -1782.83,-2089.6 -672.27,-508.3 -420.02,-318.55 -1152.9,-710.9 -3165.91,-1694.87 -636.65,-3270.46 -3729.52,-6933.99 -2074.72,-2457.55 -1883.07,-2025.44 -5109.39,-3089.65 -352.09,-3857.68 -1927.52,-7092.43 -4043.18,-8374.83l0 1139.32z"/>
   <path class="fil5" d="M0.02 27759.42c2115.66,1282.4 3691.09,4517.15 4043.18,8374.83 3226.32,1064.21 3034.67,632.1 5109.39,3089.65 3092.87,3663.53 563.61,5239.12 3729.52,6933.99 732.88,392.35 480.63,202.6 1152.9,710.9 937.27,708.51 1152.1,964.33 1782.83,2089.6 896.44,1599.4 1667.65,3382.6 2025.66,5615.16 5216.75,1606.43 5947.12,2598.26 7996.76,8095.34 5465.39,309.97 5881.2,2449.45 8495.35,5440.18 4766.73,-1215.15 6570.13,164.51 9557.34,2614.91 6631.84,-1558.21 6381.79,-1858.66 11327.23,1665.35 2799.97,-1815.33 7861.9,-3652.93 9913.14,-771.01 1418.5,-545.91 385.61,100.47 1164.34,-839.7 55.69,-67.25 306.94,-761.37 340.25,-825.77 -2673.24,-828.98 -3687.17,-1837.83 -6795.69,-1688.68 -2826.17,135.71 -3754.51,1626.9 -6316.18,618.65 -7111.96,-2798.96 -4515.07,1257.76 -12650.6,-1752.13 894.22,-685.31 1090.99,-1377.75 1905.34,-2179.72l-2890.88 325.46c-3620.35,484.01 -3465.02,1512.26 -6298.01,-709.24l-1967.76 -1531.78c684.42,-636.5 2689,-2440.65 3232.34,-2719.2l-2842.92 365.21c-3912.14,-112.25 -6118,-200.82 -7521.85,-3435.21 -454.64,-817.44 -553.28,17.73 1086.97,-689 1260.97,-543.29 1082.77,-698.87 1520.15,-1265.02 -833.52,-170.58 -3033.27,-805.3 -3949.27,-1132.77 -4341.39,-1552.5 -3111.83,-1008.61 -4685.85,-4142.66 -596.22,-1187.17 -602.64,-857.43 -1350.67,-2034.25 650.4,-295.81 403.56,167.61 1357.29,-387.83 -1695.04,-775.17 -666.86,-874.1 -2078.23,-1844.85 -878.57,-604.24 -1879.06,-726.38 -3045.91,-750.07l-245.63 -993.85 -1912.17 -4986.52c-671.37,-453.42 -957.04,-742.09 -1742.9,-1104.68l552.47 -861.6c-1883.77,-2118.17 -1847.55,-1936.52 -4534.04,-2663.37 -645.49,-2841.09 -1500.98,-4731.18 -2816.03,-6539.14 -1442.98,-620.07 -1710.59,-1078.61 -2647.86,-1727.13l0 1635.95z"/>
   <path class="fil6" d="M19520.88 8053.31l4555.01 1630.95c7644.37,2427.07 19608.05,10960.47 25165.25,15569.99 6586.49,5463.04 10122.96,8602.8 15504.67,15638.33 5433.49,7103.26 3422.38,11060.46 -5886.32,7912.61l-7243.21 -3465.45c-3180.26,-347.83 -14734.96,-9251.67 -17726.68,-11125.22l-9169.43 -7992.6c-716.83,-624.48 -1054.97,-1110.87 -1753.84,-1690.23 -1169.35,-969.33 -620.39,-406.87 -1704.66,-1747.84 -665.15,-822.68 -856.9,-765.3 -1459.84,-1656.3 -840.55,-937.79 -1346.96,-1521.2 -2111.35,-2537.43 -3514.69,-4672.74 -8542.3,-11993.96 1830.4,-10536.81zm-4744.76 -1008.85c-5526.5,2491.95 310.55,9937.09 2446.08,12520.7 570.73,690.43 843.25,1008.5 1420.4,1687.14 3040.79,3575.2 4290.72,4903.67 7995.66,8143.18 2235.36,1954.5 4437.42,3859.59 6869.75,5703.02 4395.67,3331.53 26323.07,19233.53 33108.63,15472.62 6357.71,-3524.01 -4145.63,-14015.35 -5609.78,-15762.24 -695.46,-829.94 -577.15,-937.67 -1396.93,-1686.06 -748.73,-683.52 -737.59,-758.16 -1518.74,-1552.27l-10314.2 -8772.54c-4534.34,-3455.45 -25773.31,-19012.59 -33000.87,-15753.55z"/>
   <path class="fil7" d="M2567.81 56327.71c-1713.2,899.09 -1320.67,1257.76 -2567.79,2588.61l0 10131.24 696.26 454.49c1633.22,-2837.76 816.66,-6469.38 -105.36,-9341.19 482.63,-519.96 -595.11,-451.51 723.95,-510.79l8616.56 -1093.01c436.77,339.38 48.36,205.46 310.65,916.83 -266.91,2054.49 -945.7,3174.05 -819.58,5735.16 140.98,2859.9 1853.07,5472.44 115.9,5070.68l-3695.51 -740.77c-1478.5,-132.97 -3484.49,-75.47 -4258.21,1170.38 1387.4,2342.68 4741.15,2117.22 7617.78,1980.92 3728.82,-176.53 4944.73,-6172.5 3719.59,-11051.06 -1034.2,-4117.78 -5244.35,-7046.24 -8336.01,-6159.76 -1713.7,491.39 -482.23,50.11 -1025.97,648.28 3914.44,390.09 2532.47,624.72 3119.05,1338.71l-3847.32 44.99c-564.61,-708.27 -956.13,1042.66 -263.99,-1183.71z"/>
   <path class="fil8" d="M19801.83 21127.55c602.94,891 794.69,833.62 1459.84,1656.3 1084.27,1340.97 535.31,778.51 1704.66,1747.84 698.87,579.36 1037.01,1065.75 1753.84,1690.23l9169.43 7992.6c690.23,-619.83 -992.06,-1026.35 1125.41,-159.99l3813 1886.88c1610.05,648.52 3730.42,1534.88 5385.72,1916.28 -5403.48,-4252.05 -29216.06,-15942.35 -25984.53,-27847.63 2197.24,-526.03 4863.86,62.26 6794.5,1206.58 -264.1,-836.37 -646.89,-1174.56 -947.81,-1532.38l-4555.01 -1630.95c-875.67,955.64 -3996.93,1039.2 -2315.14,6941.01 590.3,2071.51 1367.83,3428.91 2357.18,4798.92 1367.73,1893.91 480.52,1081.47 238.91,1334.31z"/>
   <path class="fil9" d="M13973.2 23938.76l-1214.41 -2765.5c1186.82,1385.01 2856.27,3179.28 4187.37,4367.28 -773.82,-1103.01 -1307.72,-2490.76 -2118.37,-3948.03 -966.26,-1737.25 -1522.15,-2656.94 -2303.39,-4414.9 -3006.37,-6765.43 -1228.26,-7542.64 -1814.14,-11176.17 -1628.91,4755.59 -850.88,8042.01 611.47,12609.39 -2506.68,-4065.4 -5245.65,-11866.83 -823.69,-15390.72l-218.23 -638.29c-9596.68,3189.4 -373.47,15621.07 1819.65,19292.69 739.4,1238 814.86,1274.79 1873.74,2064.25z"/>
   <path class="fil10" d="M0.02 56162l0 2754.32c1247.12,-1330.85 854.59,-1689.52 2567.79,-2588.61l992.26 -199.99c543.74,-598.17 -687.73,-156.89 1025.97,-648.28 3091.66,-886.48 7301.81,2041.98 8336.01,6159.76 1225.14,4878.56 9.23,10874.53 -3719.59,11051.06 -2876.63,136.3 -6230.38,361.76 -7617.78,-1980.92l-870.95 -115.23 -17.45 -1092.06 -696.26 -454.49 0 4131.47 11933.78 0 217.54 -618.52c109.67,-950.52 15.05,-40.12 842.55,-100.59 705.79,460.32 506.31,432.59 203.69,-373.18l91.41 -935.77c135.26,-99.75 286.77,-425.32 305.03,-306.64 15.65,101.3 167.57,-106.42 240.81,-177.13 274.23,-2770.02 1501.39,-3909.46 896.94,-7818.8 -433.07,-2801.57 -1638.95,-4488.11 -2837.2,-5887.77 -3439.94,-4017.9 -7618.28,-3503.54 -11894.55,-798.63z"/>
   <path class="fil11" d="M0.02 52804.88l0 2312.56c6087.9,-2880.49 4676.22,-2332.08 10876.81,-458.53l-10.94 -580.91c3510.08,1167.29 5883.31,5850.14 4972.62,11118.07 14.15,-152.01 69.04,-577.33 1.91,-913.26 -145.39,-727.68 -369.65,-919.1 -506.01,-1180.27 92.41,2044.49 236.8,2876.45 -291.29,4874.99 -112.98,427.46 -286.87,1132.05 -434.17,1535.48 -688.32,1884.49 -345.36,776.84 -774.12,1154.19l-637.25 1419.54c302.62,805.77 502.1,833.5 -203.69,373.18l-325.2 719.11 2240.08 0c1123.9,-2912.63 2585.45,-4538.93 2280.32,-9247.03 -390.73,-6027.63 -3837.79,-10944.75 -8874.13,-12374.52 -3890.97,-1104.56 -5247.26,166.65 -8314.94,1247.4z"/>
   <path class="fil12" d="M24582.7 71915.56l457.05 473.65c52.18,59.28 167.97,186.42 225.46,252.48 58.4,67.26 169.38,204.04 222.05,265.46 53.08,61.9 144.9,182.96 219.55,271.88l2628.29 0c604.05,-2861.92 3.01,-2846.09 -254.96,-5234.6 1156.81,1901.17 1704.27,2073.66 1528.17,5234.6l791.28 0c198.47,-3415.69 -244.43,-4212.05 -1261.77,-6702.7 1897.22,1414.06 2602.91,3231.18 2714.68,6702.7l2649.17 0 -1503.19 -3439.38c-1486.73,-3423.3 -3186.48,-5385.89 -6885.7,-6207.38l878.78 7710.48 -2408.86 672.81z"/>
   <path class="fil13" d="M40024.66 55756.8c411.59,578.76 -126.63,206.17 835.93,890.17l2667.82 1420.01c3294.95,1656.06 7561.39,3560.44 11094.45,4515.01 4569.96,1234.67 13461.65,3169.76 14734.25,-4043.03l-991.45 376.17c-2904.33,2523.37 -3663.1,3337 -8550.03,3160.35 -1467.07,-52.97 -4044.99,64.28 -5317.9,-105.83 -1568.81,-209.62 -2921.28,-972.66 -4363.16,-1455.12 204.09,-174.63 -466.78,-676.38 1056.47,-480.32 -1636.54,-693.4 -3582.82,-1646.9 -5485.76,-2447.67 -1671.76,-703.64 -3880.33,-1572.74 -5352.01,-2581.47l-328.61 751.73z"/>
   <path class="fil14" d="M3700.94 61871.09c1532.29,84.4 4068.17,-461.04 5029.22,-241.29l-258.67 3273.44 373.36 2643.84 535.61 1821.41c-2064.48,-619.71 -3038.58,-1058.73 -5318.29,-902.67l-2126.2 369.86c645.08,-2386.49 591.7,-5131.63 -36.22,-7498.12l1801.19 533.53zm-2386.07 -2221.02c-1319.06,59.28 -241.32,-9.17 -723.95,510.79 922.02,2871.81 1738.58,6503.43 105.36,9341.19l17.45 1092.06 870.95 115.23c773.72,-1245.85 2779.71,-1303.35 4258.21,-1170.38l3695.51 740.77c1737.17,401.76 25.08,-2210.78 -115.9,-5070.68 -126.12,-2561.11 552.67,-3680.67 819.58,-5735.16 -1764.47,160.23 -2411.96,2174.24 -6756.16,1225.5 -2500.57,-546.14 -1908.46,-796.6 -2171.05,-1049.32z"/>
   <path class="fil8" d="M51616.28 45339.74l7243.21 3465.45c472.7,-1202.89 1043.23,-113.21 2569.3,-625.07 2265.86,-759.95 2038.19,-4152.78 577.95,-6934.12 -117.3,1788.44 -86.99,3447 -876.87,4908.08 -4607.29,1196.69 -10731.21,-4326.57 -14701.04,-5250.43 1664.03,1455.6 3166.61,2953.94 5273.24,4357.64l-85.79 78.45z"/>
   <path class="fil0" d="M19801.83 21127.55c241.61,-252.84 1128.82,559.6 -238.91,-1334.31 -989.35,-1370.01 -1766.88,-2727.41 -2357.18,-4798.92 -1681.79,-5901.81 1439.47,-5985.37 2315.14,-6941.01 -10372.7,-1457.15 -5345.09,5864.07 -1830.4,10536.81 764.39,1016.23 1270.8,1599.64 2111.35,2537.43z"/>
   <path class="fil15" d="M18509.15 66474.55l-10.33 1462.5c1565.29,452.23 4792.21,1103.61 6159.14,314.27 55.29,-2021.52 85.39,-3000.37 -537.72,-4523.82l-432.56 3180.7 -740.81 -860.52c-459.76,1559.76 408.68,601.38 -1000.39,973.61 -52.98,-102.85 -145.09,-365.21 -159.14,-308.43l-328.61 -3789.47 -834.02 384.61c-730.17,-457.7 -132.05,53.45 -437.88,-786.48 -349.99,-961.72 -264.4,-3394.39 -2132.32,-5302.33 1355.89,-2181.15 -916.7,-435.21 939.98,-702.57l-904.46 -557.81c155.83,1690.58 49.77,3592.34 604.75,5112.1 798.2,2185.79 927.24,1864.62 1155.31,4747.5l-1340.94 656.14z"/>
   <path class="fil15" d="M2977.39 46038.97c-659.73,1801.65 -214.02,277.24 208.41,879.69l3759.82 -240.22c-100.44,-1286.92 -52.17,-2502.07 -180.61,-3751.49 -29.4,-285.1 -167.47,-1215.39 -245.73,-1460.13 -536.42,-1677.37 -158.34,-455.8 -660.03,-1095.51 218.34,1894.26 434.27,3802.09 -1198.16,4509.06 -480.42,-1223.24 831.21,-2652.89 405.88,-5696.47l731.07 342.59 -463.67 -1502.62 27.29 -140.94 -1267.19 -677.09c-14.04,3199.99 -766.89,6160.12 -1117.08,8833.13z"/>
   <path class="fil15" d="M7144.8 46526.55c2041.71,-165.58 626.42,-295.93 1158.32,861.84 -534.91,438.3 -311.06,-27.02 -396.55,896.96l-829.6 1528.81 2863.79 795.41c3.61,-5810.03 -251.55,-10263.85 -3921.37,-12190.85 1149.99,2399.7 2545.81,4988.55 1125.41,8107.83z"/>
   <path class="fil16" d="M0.02 39028.44c590.9,-1090.99 688.23,-2883.24 851.18,-4350.15 427.25,2819.43 529.49,5919.67 -851.18,7893.92l0 1940.69c1604.23,-2226.26 1452.72,-5784.2 2517.12,-7721.44 -2.71,-2770.97 -539.03,-6085.48 -2517.12,-7892.72l0 10129.7z"/>
   <path class="fil5" d="M3700.94 61871.09c718.53,3432.71 806.33,3939.82 2568.49,6164.89 -1546.83,38.44 -906.46,-333.07 -2207.26,429.84 2279.71,-156.06 3253.81,282.96 5318.29,902.67l-535.61 -1821.41c-1970.07,-606.85 -3095.37,-3241.18 -4053.92,-5297.21l1790.46 -32.97c474.91,1714.99 788.87,1734.27 1890.1,2686.34l258.67 -3273.44c-961.05,-219.75 -3496.93,325.69 -5029.22,241.29z"/>
   <path class="fil8" d="M37252.18 29915.09c-3682.16,-3658.77 -7081.17,-4974.62 -10397.09,-9184.9 -572.13,-726.37 -1583.35,-1972.94 -1708.38,-3078.81 -219.74,-1942.71 -105.25,-817.43 373.37,-1584.28 -845.57,439.13 -1151.2,543.53 -803.62,2124.6 498.28,2266.61 2746.69,5206.03 4126.86,6502 2557.46,2401.48 4304.07,4158.02 8408.86,5221.39z"/>
   <path class="fil17" d="M0.02 55117.44l0 1044.56c4276.27,-2704.91 8454.61,-3219.27 11894.55,798.63 1198.25,1399.66 2404.13,3086.2 2837.2,5887.77 604.45,3909.34 -622.71,5048.78 -896.94,7818.8 428.76,-377.35 85.8,730.3 774.12,-1154.19 147.3,-403.43 321.19,-1108.02 434.17,-1535.48 528.09,-1998.54 383.7,-2830.5 291.29,-4874.99 -519.76,-2279.35 -632.74,-3015.96 -1681.69,-4850.34 -483.14,-844.82 -745.62,-1452.86 -1416.39,-2109.84 -780.45,-764.46 -838.04,-362.11 -1359.5,-1483.45 -6200.59,-1873.55 -4788.91,-2421.96 -10876.81,458.53z"/>
   <path class="fil18" d="M21458.73 62923.39l-535.81 -2137.22c1389.2,1706.42 1184.61,2370.66 2193.32,3913.75 72.15,-1114.2 54.79,-1253.59 -120.81,-2435.29 -42.74,-287.12 -188.03,-841.84 -197.97,-1065.87 -48.36,-1093.49 22.48,-605.31 237.51,-1093.96 -878.78,-1611.9 -2010.71,-3240.71 -4040.48,-3588.18 -1856.68,267.36 415.91,-1478.58 -939.98,702.57 1867.92,1907.94 1782.33,4340.61 2132.32,5302.33 305.83,839.93 -292.29,328.78 437.88,786.48l834.02 -384.61z"/>
   <path class="fil19" d="M0.02 26123.47c937.27,648.52 1204.88,1107.06 2647.86,1727.13 1897.52,-8.33 513.54,113.09 1047.34,-524.24 -1081.96,-737.8 -1768.08,-1433.58 -2808.1,-2860.5l396.24 -3345.34 -578.15 -6733.29c-358.82,-555.32 628.52,-672.69 -705.19,-345.57l0 12081.81z"/>
   <path class="fil3" d="M4062.17 68465.82c1300.8,-762.91 660.43,-391.4 2207.26,-429.84 -1762.16,-2225.07 -1849.96,-2732.18 -2568.49,-6164.89l-1801.19 -533.53c627.92,2366.49 681.3,5111.63 36.22,7498.12l2126.2 -369.86z"/>
   <path class="fil20" d="M33591.89 64567.19c2832.99,2221.5 2677.66,1193.25 6298.01,709.24 323.3,-193.56 1043.13,-576.87 1410.98,-947.91 16.85,-17.02 570.33,-728.63 608.66,-782.8l458.85 -797.91c-3292.54,556.15 -4991.99,1461.79 -8386.68,547.22 -715.12,627.45 -991.36,-1304.54 -389.82,1272.16z"/>
   <path class="fil13" d="M15296.28 32464.3c-929.75,-1503.46 -5005.84,-5240.91 -6840.85,-8373.77l-1798.89 -4058.62c190.45,5968.48 4536.05,11103.44 8639.74,12432.39z"/>
   <path class="fil19" d="M32013.55 60681.42c1187.12,-951.12 1480.01,-326.28 2753.42,-1816.29 -6041.35,43.81 -4852.02,779.23 -10275.27,-1618.92 1403.85,3234.39 3609.71,3322.96 7521.85,3435.21z"/>
   <path class="fil16" d="M45203.38 73179.03l1314.75 0 -761.68 -1747.96c1418.8,452.71 1125.11,377.12 1916.29,1747.96l2043.01 0c-374.07,-1689.39 -47.06,-425.8 194.86,-784.22l727.76 784.22 2607.33 0c-1717.42,-2505.88 -5815.68,-2486.95 -8290.76,-1907.35 -282.25,905.41 13.85,1055.28 248.44,1907.35z"/>
   <path class="fil10" d="M1314.87 59650.07c262.59,252.72 -329.52,503.18 2171.05,1049.32 4344.2,948.74 4991.69,-1065.27 6756.16,-1225.5 -262.29,-711.37 126.12,-577.45 -310.65,-916.83l-8616.56 1093.01z"/>
   <path class="fil21" d="M10876.83 54658.91c521.46,1121.34 579.05,718.99 1359.5,1483.45 670.77,656.98 933.25,1265.02 1416.39,2109.84 1048.95,1834.38 1161.93,2570.99 1681.69,4850.34 136.36,261.17 360.62,452.59 506.01,1180.27 67.13,335.93 12.24,761.25 -1.91,913.26 910.69,-5267.93 -1462.54,-9950.78 -4972.62,-11118.07l10.94 580.91z"/>
   <path class="fil22" d="M11638 50264.36c1877.15,1072.66 1159.02,1790.1 4010.17,2096.98l-952.32 -2558.85c-22.78,-153.2 -115.49,-170.7 -173.19,-256.17l-553.17 -451.27c-814.05,-339.5 -411.39,185.58 -463.37,-905.17 -152.51,-965.05 140.48,-509.25 -807.83,-1066.71 -22.88,-13.57 -781.04,-305.57 -1008.31,-450.8l-51.98 3591.99z"/>
   <path class="fil23" d="M24657.96 68251.32c-1366.93,789.34 -4593.85,137.96 -6159.14,-314.27l10.33 -1462.5c-229.47,385.21 -190.74,145.11 -378.78,889.57l-299.71 1972.95c1985.11,1074.44 4776.26,910.76 7183.4,333.54 -33.81,-1650.35 -38.13,-906.12 -356.1,-1419.29z"/>
   <path class="fil15" d="M34982.7 69748.58l954.53 213.2c817.86,1153.25 1202.26,1734.03 1479.3,3217.25l1254.75 0 -347.08 -1812.48c527.99,796.25 814.16,509.96 1299.7,1812.48l432.67 0c-136.47,-527.1 -260.19,-1116.82 -482.94,-1592.85 -497.18,-1062.42 -587.39,-874.93 -1117.48,-1279.55 608.46,-768.03 -220.55,-241.17 805.43,-446.98 -1260.47,-848.03 -2880.35,-808.87 -4400.4,-641.38l121.52 530.31z"/>
   <path class="fil13" d="M5206.54 23016.69c-1002.8,-3748.41 -2377.05,-7387.06 -1048.95,-11408.53 -848.87,581.38 -1257.46,769.46 -1509.01,2517.9 -177.3,1232.28 -61.91,2525.99 191.15,3650.43 434.87,1931.88 1085.87,4275.63 2366.81,5240.2z"/>
   <path class="fil24" d="M0.02 44512.9l0 2546.23c1361.91,-610.67 1618.78,-1876.52 2078.33,-4204.44 354.1,-1793.67 374.67,-4158.49 438.79,-6063.23 -1064.4,1937.24 -912.89,5495.18 -2517.12,7721.44z"/>
   <path class="fil3" d="M8844.85 67547.08l-373.36 -2643.84c-1101.23,-952.07 -1415.19,-971.35 -1890.1,-2686.34l-1790.46 32.97c958.55,2056.03 2083.85,4690.36 4053.92,5297.21z"/>
   <path class="fil25" d="M15648.17 52361.34c-2851.15,-306.88 -2133.02,-1024.32 -4010.17,-2096.98l71.14 1448.46c1372.85,974.09 1336.12,810.42 2488.62,2096.63 964.57,1076.46 1007.01,1700.46 2309.32,2552.66l-858.91 -4000.77z"/>
   <path class="fil23" d="M7906.57 48285.35c85.49,-923.98 -138.36,-458.66 396.55,-896.96 -531.9,-1157.77 883.39,-1027.42 -1158.32,-861.84l-199.18 151.89 -3759.82 240.22c-422.43,-602.45 -868.14,921.96 -208.41,-879.69 -878.87,809.34 -619.79,616.5 -1016.43,2046.87 2018.33,171.53 4396.07,-757.33 5945.61,199.51z"/>
   <path class="fil19" d="M11188.38 39019.39l1912.17 4986.52 266.8 -2562.06c35.02,92.37 156.03,95.46 194.26,287.59l1225.75 2001.4c-47.06,-2684.92 -391.73,-2008.42 -1655.5,-3267.73 -1462.95,-1457.86 -373.97,-1855.57 -2624.28,-2984.65l680.8 1538.93z"/>
   <path class="fil18" d="M56423.35 73179.03l7549.44 0c-1262.27,-1456.43 -4279.38,-1500.71 -6050.67,-998.85 -1442.28,408.54 -1181.6,623.17 -1498.77,998.85z"/>
   <path class="fil5" d="M26857.5 53021.89c-2533.57,-1334.66 -3985.38,-710.31 -6817.07,-2711.7 1265.18,2349.7 3871.3,4335.14 6817.07,2711.7z"/>
   <path class="fil14" d="M30399.59 73179.03l1452.91 0c-111.77,-3471.52 -817.46,-5288.64 -2714.68,-6702.7 1017.34,2490.65 1460.24,3287.01 1261.77,6702.7z"/>
   <path class="fil5" d="M16258.84 73179.03l5277.36 0 -190.45 -910.28 -4000.94 -1018.38c-423.33,654 -797.5,1363.71 -1085.97,1928.66z"/>
   <path class="fil26" d="M5798.04 39526.49l61.21 844.82c501.69,639.71 123.61,-581.86 660.03,1095.51 78.26,244.74 216.33,1175.03 245.73,1460.13 128.44,1249.42 80.17,2464.57 180.61,3751.49l199.18 -151.89c1420.4,-3119.28 24.58,-5708.13 -1125.41,-8107.83l-657.73 -535.79 -27.29 140.94 463.67 1502.62z"/>
   <path class="fil14" d="M21458.73 62923.39l328.61 3789.47c14.05,-56.78 106.16,205.58 159.14,308.43 1409.07,-372.23 540.63,586.15 1000.39,-973.61l169.37 -1347.76c-1008.71,-1543.09 -804.12,-2207.33 -2193.32,-3913.75l535.81 2137.22z"/>
   <path class="fil17" d="M5859.25 40371.31l-61.21 -844.82 -731.07 -342.59c425.33,3043.58 -886.3,4473.23 -405.88,5696.47 1632.43,-706.97 1416.5,-2614.8 1198.16,-4509.06z"/>
   <path class="fil21" d="M2567.81 56327.71c-692.14,2226.37 -300.62,475.44 263.99,1183.71l3847.32 -44.99c-586.58,-713.99 795.39,-948.62 -3119.05,-1338.71l-992.26 199.99z"/>
   <path class="fil24" d="M0.02 39028.44l0 3543.77c1380.67,-1974.25 1278.43,-5074.49 851.18,-7893.92 -162.95,1466.91 -260.28,3259.16 -851.18,4350.15z"/>
   <path class="fil26" d="M23116.24 64699.92l-169.37 1347.76 740.81 860.52 432.56 -3180.7 -1085.27 -3622.7c-215.03,488.65 -285.87,0.47 -237.51,1093.96 9.94,224.03 155.23,778.75 197.97,1065.87 175.6,1181.7 192.96,1321.09 120.81,2435.29z"/>
   <path class="fil24" d="M28335.1 73179.03l1273.21 0c176.1,-3160.94 -371.36,-3333.43 -1528.17,-5234.6 257.97,2388.51 859.01,2372.68 254.96,5234.6z"/>
   <path class="fil23" d="M36039.87 73179.03l1376.66 0c-277.04,-1483.22 -661.44,-2064 -1479.3,-3217.25l-954.53 -213.2 1057.17 3430.45z"/>
   <path class="fil8" d="M43431.08 26926.15c1076.05,1984.13 1297.19,3868.39 2528.06,5889.19 243.62,-2249.83 -985.54,-4924.15 -2528.06,-5889.19z"/>
   <path class="fil18" d="M41416.97 73179.03l1840.13 0c-546.35,-1414.77 -689.34,-1426.91 -1854.88,-2335.89 -710.2,1105.63 -846.26,-1901.88 -434.97,1429.65l449.72 906.24z"/>
   <path class="fil8" d="M47442.76 29647.73c151.91,958.61 272.62,1498.69 594.81,2515.04 513.94,1620.59 315.27,1283.24 1210.5,1816.89 598.52,-1708.8 -1025.97,-3492.71 -1805.31,-4331.93z"/>
   <path class="fil27" d="M23016.6 73179.03l2690.21 0c-74.65,-88.92 -166.47,-209.98 -219.55,-271.88 -52.67,-61.42 -163.65,-198.2 -222.05,-265.46 -57.49,-66.06 -173.28,-193.2 -225.46,-252.48l-457.05 -473.65 -2282.32 305.09 716.22 958.38z"/>
   <path class="fil26" d="M40056.57 73179.03l864.22 0c-423.53,-1675.7 -876.27,-2430.76 -1659.21,-3319.38 -1025.98,205.81 -196.97,-321.05 -805.43,446.98 530.09,404.62 620.3,217.13 1117.48,1279.55 222.75,476.03 346.47,1065.75 482.94,1592.85z"/>
   <path class="fil5" d="M0.02 51298.45l2393.9 -1322.88 -2393.9 -964.33 0 2287.21z"/>
   <path class="fil9" d="M50738.71 31691.5c4.42,36.07 504.21,3388.79 731.48,2805.62 26.09,-67.02 141.68,165.94 210.31,251.41 754.65,-758.99 891.32,-325.69 216.13,-1657.26 -492.37,-970.88 -482.03,-897.07 -1157.92,-1399.77z"/>
   <path class="fil28" d="M30327.14 4224.79l1993.15 1049.33 90.6 -17.03 -917 -1963.06 -1240.4 153.32 73.65 777.44z"/>
   <path class="fil15" d="M40920.79 73179.03l496.18 0 -449.72 -906.24c-411.29,-3331.53 -275.23,-324.02 434.97,-1429.65l-2140.64 -983.49c782.94,888.62 1235.68,1643.68 1659.21,3319.38z"/>
   <path class="fil27" d="M46518.13 73179.03l1154.61 0c-791.18,-1370.84 -497.49,-1295.25 -1916.29,-1747.96l761.68 1747.96z"/>
   <path class="fil23" d="M38671.28 73179.03l952.62 0c-485.54,-1302.52 -771.71,-1016.23 -1299.7,-1812.48l347.08 1812.48z"/>
   <path class="fil29" d="M11933.8 73179.03l734.89 0 325.2 -719.11c-827.5,60.47 -732.88,-849.93 -842.55,100.59l-217.54 618.52z"/>
   <path class="fil30" d="M14522.66 49546.32c-567.32,-1367.51 19.67,-549.24 -1016.54,-1356.44 51.98,1090.75 -350.68,565.67 463.37,905.17l553.17 451.27z"/>
   <path class="fil24" d="M49715.75 73179.03l922.62 0 -727.76 -784.22c-241.92,358.42 -568.93,-905.17 -194.86,784.22z"/>
   <path class="fil31" d="M13197.58 72086.74l637.25 -1419.54c-73.24,70.71 -225.16,278.43 -240.81,177.13 -18.26,-118.68 -169.77,206.89 -305.03,306.64l-91.41 935.77z"/>
  </g>
 </g>
</svg>
